<svg xmlns="http://www.w3.org/2000/svg" xmlns:xlink="http://www.w3.org/1999/xlink" width="2880" zoomAndPan="magnify" viewBox="0 0 2160 1199.999942" height="1600" preserveAspectRatio="xMidYMid meet" version="1.0"><defs><g/><clipPath id="7c63580f2c"><path d="M 299 0 L 1190 0 L 1190 661 L 299 661 Z M 299 0 " clip-rule="nonzero"/></clipPath><clipPath id="85ddd05943"><path d="M 695.914062 -586.136719 L 1256.464844 -343.90625 L 793.554688 727.320312 L 233.003906 485.089844 Z M 695.914062 -586.136719 " clip-rule="nonzero"/></clipPath><clipPath id="d437455be1"><path d="M 890.75 -501.941406 L 1061.628906 -428.097656 C 1169.234375 -381.601562 1218.769531 -256.671875 1172.269531 -149.066406 L 877.75 532.484375 C 831.25 640.089844 706.324219 689.625 598.71875 643.128906 L 427.84375 569.285156 C 320.238281 522.785156 270.699219 397.859375 317.199219 290.253906 L 611.71875 -391.296875 C 658.21875 -498.902344 783.144531 -548.441406 890.75 -501.941406 " clip-rule="nonzero"/></clipPath><clipPath id="1be782d999"><path d="M 324 0 L 1320 0 L 1320 923 L 324 923 Z M 324 0 " clip-rule="nonzero"/></clipPath><clipPath id="ce464b0fe6"><path d="M 806.703125 -530.117188 L 1385.832031 -279.859375 L 837.253906 989.617188 L 258.125 739.359375 Z M 806.703125 -530.117188 " clip-rule="nonzero"/></clipPath><clipPath id="4c5557284e"><path d="M 1001.539062 -445.921875 L 1190.996094 -364.054688 C 1298.601562 -317.554688 1348.136719 -192.625 1301.636719 -85.023438 L 921.449219 794.78125 C 874.949219 902.386719 750.023438 951.921875 642.417969 905.421875 L 452.960938 823.550781 C 345.355469 777.054688 295.820312 652.125 342.320312 544.519531 L 722.507812 -335.28125 C 769.007812 -442.886719 893.933594 -492.421875 1001.539062 -445.921875 " clip-rule="nonzero"/></clipPath><clipPath id="35d574f22a"><path d="M 1452 908 L 2160 908 L 2160 1200 L 1452 1200 Z M 1452 908 " clip-rule="nonzero"/></clipPath><clipPath id="61b1d58bc9"><path d="M 1934.410156 841.828125 L 2513.542969 1092.089844 L 1964.964844 2361.566406 L 1385.832031 2111.304688 Z M 1934.410156 841.828125 " clip-rule="nonzero"/></clipPath><clipPath id="c2e69a84d4"><path d="M 2129.246094 926.023438 L 2318.707031 1007.894531 C 2426.3125 1054.394531 2475.847656 1179.320312 2429.347656 1286.925781 L 2049.160156 2166.726562 C 2002.660156 2274.332031 1877.734375 2323.871094 1770.128906 2277.371094 L 1580.667969 2195.5 C 1473.066406 2149 1423.527344 2024.074219 1470.027344 1916.46875 L 1850.214844 1036.664062 C 1896.714844 929.058594 2021.640625 879.523438 2129.246094 926.023438 " clip-rule="nonzero"/></clipPath><clipPath id="211edd962c"><path d="M 0 443 L 169 443 L 169 1136 L 0 1136 Z M 0 443 " clip-rule="nonzero"/></clipPath><clipPath id="90d9b835e9"><path d="M -142.738281 379.171875 L 233.003906 541.542969 L -51.535156 1200.003906 L -427.277344 1037.632812 Z M -142.738281 379.171875 " clip-rule="nonzero"/></clipPath><clipPath id="02b7366242"><path d="M 45.132812 460.359375 C 148.890625 505.195312 196.65625 625.65625 151.820312 729.414062 L 29.648438 1012.132812 C -15.1875 1115.890625 -135.648438 1163.65625 -239.40625 1118.816406 C -343.164062 1073.980469 -390.929688 953.519531 -346.09375 849.761719 L -223.921875 567.042969 C -179.085938 463.285156 -58.625 415.519531 45.132812 460.359375 " clip-rule="nonzero"/></clipPath><clipPath id="bf7b37152d"><path d="M 479.425781 404.277344 L 871.378906 404.277344 L 871.378906 796.230469 L 479.425781 796.230469 Z M 479.425781 404.277344 " clip-rule="nonzero"/></clipPath><clipPath id="730381a1db"><path d="M 675.402344 404.277344 C 567.167969 404.277344 479.425781 492.019531 479.425781 600.253906 C 479.425781 708.488281 567.167969 796.230469 675.402344 796.230469 C 783.636719 796.230469 871.378906 708.488281 871.378906 600.253906 C 871.378906 492.019531 783.636719 404.277344 675.402344 404.277344 " clip-rule="nonzero"/></clipPath><clipPath id="3a8967d9f1"><path d="M 544.796875 629 L 609 629 L 609 664 L 544.796875 664 Z M 544.796875 629 " clip-rule="nonzero"/></clipPath><clipPath id="b3b560eed7"><path d="M 611 500 L 805.796875 500 L 805.796875 727.632812 L 611 727.632812 Z M 611 500 " clip-rule="nonzero"/></clipPath><clipPath id="6dc55577aa"><path d="M 728 470.382812 L 781 470.382812 L 781 523 L 728 523 Z M 728 470.382812 " clip-rule="nonzero"/></clipPath></defs><rect x="-216" width="2592" fill="#ffffff" y="-119.999994" height="1439.999931" fill-opacity="1"/><rect x="-216" width="2592" fill="#ffffff" y="-119.999994" height="1439.999931" fill-opacity="1"/><g clip-path="url(#7c63580f2c)"><g clip-path="url(#85ddd05943)"><g clip-path="url(#d437455be1)"><path fill="#308045" d="M 695.914062 -586.136719 L 1256.464844 -343.90625 L 793.554688 727.320312 L 233.003906 485.089844 Z M 695.914062 -586.136719 " fill-opacity="1" fill-rule="nonzero"/></g></g></g><g clip-path="url(#1be782d999)"><g clip-path="url(#ce464b0fe6)"><g clip-path="url(#4c5557284e)"><path fill="#399b53" d="M 806.703125 -530.117188 L 1385.832031 -279.859375 L 837.253906 989.617188 L 258.125 739.359375 Z M 806.703125 -530.117188 " fill-opacity="1" fill-rule="nonzero"/></g></g></g><g clip-path="url(#35d574f22a)"><g clip-path="url(#61b1d58bc9)"><g clip-path="url(#c2e69a84d4)"><path fill="#399b53" d="M 1934.410156 841.828125 L 2513.542969 1092.089844 L 1964.964844 2361.566406 L 1385.832031 2111.304688 Z M 1934.410156 841.828125 " fill-opacity="1" fill-rule="nonzero"/></g></g></g><g clip-path="url(#211edd962c)"><g clip-path="url(#90d9b835e9)"><g clip-path="url(#02b7366242)"><path fill="#399b53" d="M -142.738281 379.171875 L 233.003906 541.542969 L -51.535156 1200.003906 L -427.277344 1037.632812 Z M -142.738281 379.171875 " fill-opacity="1" fill-rule="nonzero"/></g></g></g><g clip-path="url(#bf7b37152d)"><g clip-path="url(#730381a1db)"><path fill="#ffffff" d="M 479.425781 404.277344 L 871.378906 404.277344 L 871.378906 796.230469 L 479.425781 796.230469 Z M 479.425781 404.277344 " fill-opacity="1" fill-rule="nonzero"/></g></g><g fill="#242424" fill-opacity="1"><g transform="translate(1105.118497, 642.963546)"><g><path d="M 7.9375 -109.0625 L 39.53125 -109.0625 C 54.6875 -109.0625 67.640625 -103.878906 78.390625 -93.515625 C 89.140625 -83.160156 94.515625 -70.1875 94.515625 -54.59375 C 94.515625 -38.90625 89.160156 -25.882812 78.453125 -15.53125 C 67.742188 -5.175781 54.769531 0 39.53125 0 L 7.9375 0 Z M 32.78125 -22.203125 L 36.609375 -22.203125 C 45.691406 -22.203125 53.117188 -25.265625 58.890625 -31.390625 C 64.660156 -37.515625 67.59375 -45.207031 67.6875 -54.46875 C 67.6875 -63.71875 64.796875 -71.425781 59.015625 -77.59375 C 53.242188 -83.757812 45.773438 -86.84375 36.609375 -86.84375 L 32.78125 -86.84375 Z M 32.78125 -22.203125 "/></g></g></g><g fill="#242424" fill-opacity="1"><g transform="translate(1202.672847, 642.963546)"><g><path d="M 10.171875 -105.609375 C 12.910156 -108.347656 16.171875 -109.71875 19.953125 -109.71875 C 23.742188 -109.71875 27.003906 -108.347656 29.734375 -105.609375 C 32.472656 -102.878906 33.84375 -99.617188 33.84375 -95.828125 C 33.84375 -92.046875 32.472656 -88.785156 29.734375 -86.046875 C 27.003906 -83.316406 23.742188 -81.953125 19.953125 -81.953125 C 16.171875 -81.953125 12.910156 -83.316406 10.171875 -86.046875 C 7.441406 -88.785156 6.078125 -92.046875 6.078125 -95.828125 C 6.078125 -99.617188 7.441406 -102.878906 10.171875 -105.609375 Z M 7.9375 -67.8125 L 7.9375 0 L 31.328125 0 L 31.328125 -67.8125 Z M 7.9375 -67.8125 "/></g></g></g><g fill="#242424" fill-opacity="1"><g transform="translate(1242.593463, 642.963546)"><g><path d="M 25.109375 -67.8125 L 41.640625 -30.9375 L 58.15625 -67.8125 L 85.921875 -67.8125 L 49.578125 0 L 33.703125 0 L -2.640625 -67.8125 Z M 25.109375 -67.8125 "/></g></g></g><g fill="#242424" fill-opacity="1"><g transform="translate(1325.871574, 642.963546)"><g><path d="M 76.53125 -30.671875 L 27.359375 -30.671875 C 27.359375 -25.910156 28.898438 -22.382812 31.984375 -20.09375 C 35.066406 -17.800781 38.414062 -16.65625 42.03125 -16.65625 C 45.820312 -16.65625 48.816406 -17.160156 51.015625 -18.171875 C 53.222656 -19.191406 55.738281 -21.195312 58.5625 -24.1875 L 75.484375 -15.734375 C 68.429688 -3.921875 56.707031 1.984375 40.3125 1.984375 C 30.09375 1.984375 21.328125 -1.515625 14.015625 -8.515625 C 6.703125 -15.523438 3.046875 -23.960938 3.046875 -33.828125 C 3.046875 -43.703125 6.703125 -52.164062 14.015625 -59.21875 C 21.328125 -66.269531 30.09375 -69.796875 40.3125 -69.796875 C 51.0625 -69.796875 59.804688 -66.6875 66.546875 -60.46875 C 73.296875 -54.257812 76.671875 -45.382812 76.671875 -33.84375 C 76.671875 -32.25 76.625 -31.191406 76.53125 -30.671875 Z M 28.03125 -43.625 L 53.796875 -43.625 C 53.265625 -47.144531 51.875 -49.851562 49.625 -51.75 C 47.382812 -53.644531 44.503906 -54.59375 40.984375 -54.59375 C 37.097656 -54.59375 34.007812 -53.578125 31.71875 -51.546875 C 29.425781 -49.523438 28.195312 -46.882812 28.03125 -43.625 Z M 28.03125 -43.625 "/></g></g></g><g fill="#242424" fill-opacity="1"><g transform="translate(1405.580628, 642.963546)"><g><path d="M 7.9375 0 L 7.9375 -67.8125 L 31.328125 -67.8125 L 31.328125 -58.03125 L 31.59375 -58.03125 C 31.769531 -58.382812 32.054688 -58.820312 32.453125 -59.34375 C 32.847656 -59.875 33.707031 -60.800781 35.03125 -62.125 C 36.351562 -63.445312 37.757812 -64.632812 39.25 -65.6875 C 40.75 -66.75 42.6875 -67.695312 45.0625 -68.53125 C 47.445312 -69.375 49.875 -69.796875 52.34375 -69.796875 C 54.90625 -69.796875 57.414062 -69.441406 59.875 -68.734375 C 62.34375 -68.035156 64.148438 -67.332031 65.296875 -66.625 L 67.15625 -65.5625 L 57.375 -45.734375 C 54.457031 -48.203125 50.398438 -49.4375 45.203125 -49.4375 C 42.390625 -49.4375 39.96875 -48.816406 37.9375 -47.578125 C 35.90625 -46.347656 34.472656 -44.851562 33.640625 -43.09375 C 32.804688 -41.332031 32.210938 -39.832031 31.859375 -38.59375 C 31.503906 -37.363281 31.328125 -36.394531 31.328125 -35.6875 L 31.328125 0 Z M 7.9375 0 "/></g></g></g><g fill="#242424" fill-opacity="1"><g transform="translate(1471.40999, 642.963546)"><g><path d="M 37.40625 -69.796875 C 41.28125 -69.796875 45.113281 -69.351562 48.90625 -68.46875 C 52.695312 -67.59375 55.519531 -66.710938 57.375 -65.828125 L 60.140625 -64.5 L 52.484375 -49.171875 C 47.191406 -51.992188 42.164062 -53.40625 37.40625 -53.40625 C 34.757812 -53.40625 32.882812 -53.117188 31.78125 -52.546875 C 30.6875 -51.972656 30.140625 -50.894531 30.140625 -49.3125 C 30.140625 -48.957031 30.179688 -48.601562 30.265625 -48.25 C 30.359375 -47.894531 30.535156 -47.5625 30.796875 -47.25 C 31.066406 -46.945312 31.3125 -46.6875 31.53125 -46.46875 C 31.75 -46.25 32.117188 -46.003906 32.640625 -45.734375 C 33.171875 -45.472656 33.59375 -45.273438 33.90625 -45.140625 C 34.21875 -45.003906 34.722656 -44.804688 35.421875 -44.546875 C 36.128906 -44.285156 36.660156 -44.085938 37.015625 -43.953125 C 37.367188 -43.816406 37.960938 -43.617188 38.796875 -43.359375 C 39.628906 -43.097656 40.269531 -42.921875 40.71875 -42.828125 C 43.445312 -42.035156 45.820312 -41.15625 47.84375 -40.1875 C 49.875 -39.21875 52.015625 -37.894531 54.265625 -36.21875 C 56.515625 -34.539062 58.253906 -32.425781 59.484375 -29.875 C 60.710938 -27.320312 61.328125 -24.414062 61.328125 -21.15625 C 61.328125 -5.726562 50.625 1.984375 29.21875 1.984375 C 24.363281 1.984375 19.753906 1.234375 15.390625 -0.265625 C 11.035156 -1.765625 7.890625 -3.265625 5.953125 -4.765625 L 3.046875 -7.140625 L 12.5625 -23.140625 C 13.257812 -22.515625 14.179688 -21.785156 15.328125 -20.953125 C 16.472656 -20.117188 18.546875 -18.972656 21.546875 -17.515625 C 24.546875 -16.054688 27.144531 -15.328125 29.34375 -15.328125 C 34.1875 -15.328125 36.609375 -16.957031 36.609375 -20.21875 C 36.609375 -21.71875 35.992188 -22.882812 34.765625 -23.71875 C 33.535156 -24.5625 31.441406 -25.507812 28.484375 -26.5625 C 25.535156 -27.625 23.222656 -28.597656 21.546875 -29.484375 C 17.316406 -31.679688 13.96875 -34.164062 11.5 -36.9375 C 9.03125 -39.71875 7.796875 -43.398438 7.796875 -47.984375 C 7.796875 -54.859375 10.460938 -60.210938 15.796875 -64.046875 C 21.128906 -67.878906 28.332031 -69.796875 37.40625 -69.796875 Z M 37.40625 -69.796875 "/></g></g></g><g fill="#242424" fill-opacity="1"><g transform="translate(1536.446232, 642.963546)"><g><path d="M 76.53125 -30.671875 L 27.359375 -30.671875 C 27.359375 -25.910156 28.898438 -22.382812 31.984375 -20.09375 C 35.066406 -17.800781 38.414062 -16.65625 42.03125 -16.65625 C 45.820312 -16.65625 48.816406 -17.160156 51.015625 -18.171875 C 53.222656 -19.191406 55.738281 -21.195312 58.5625 -24.1875 L 75.484375 -15.734375 C 68.429688 -3.921875 56.707031 1.984375 40.3125 1.984375 C 30.09375 1.984375 21.328125 -1.515625 14.015625 -8.515625 C 6.703125 -15.523438 3.046875 -23.960938 3.046875 -33.828125 C 3.046875 -43.703125 6.703125 -52.164062 14.015625 -59.21875 C 21.328125 -66.269531 30.09375 -69.796875 40.3125 -69.796875 C 51.0625 -69.796875 59.804688 -66.6875 66.546875 -60.46875 C 73.296875 -54.257812 76.671875 -45.382812 76.671875 -33.84375 C 76.671875 -32.25 76.625 -31.191406 76.53125 -30.671875 Z M 28.03125 -43.625 L 53.796875 -43.625 C 53.265625 -47.144531 51.875 -49.851562 49.625 -51.75 C 47.382812 -53.644531 44.503906 -54.59375 40.984375 -54.59375 C 37.097656 -54.59375 34.007812 -53.578125 31.71875 -51.546875 C 29.425781 -49.523438 28.195312 -46.882812 28.03125 -43.625 Z M 28.03125 -43.625 "/></g></g></g><g fill="#242424" fill-opacity="1"><g transform="translate(1616.155285, 642.963546)"><g><path d="M 1.0625 -87.25 L 1.0625 -109.0625 L 77.71875 -109.0625 L 77.71875 -87.25 L 51.8125 -87.25 L 51.8125 0 L 26.96875 0 L 26.96875 -87.25 Z M 1.0625 -87.25 "/></g></g></g><g fill="#242424" fill-opacity="1"><g transform="translate(1694.939016, 642.963546)"><g><path d="M 7.9375 0 L 7.9375 -67.8125 L 31.328125 -67.8125 L 31.328125 -58.03125 L 31.59375 -58.03125 C 31.769531 -58.382812 32.054688 -58.820312 32.453125 -59.34375 C 32.847656 -59.875 33.707031 -60.800781 35.03125 -62.125 C 36.351562 -63.445312 37.757812 -64.632812 39.25 -65.6875 C 40.75 -66.75 42.6875 -67.695312 45.0625 -68.53125 C 47.445312 -69.375 49.875 -69.796875 52.34375 -69.796875 C 54.90625 -69.796875 57.414062 -69.441406 59.875 -68.734375 C 62.34375 -68.035156 64.148438 -67.332031 65.296875 -66.625 L 67.15625 -65.5625 L 57.375 -45.734375 C 54.457031 -48.203125 50.398438 -49.4375 45.203125 -49.4375 C 42.390625 -49.4375 39.96875 -48.816406 37.9375 -47.578125 C 35.90625 -46.347656 34.472656 -44.851562 33.640625 -43.09375 C 32.804688 -41.332031 32.210938 -39.832031 31.859375 -38.59375 C 31.503906 -37.363281 31.328125 -36.394531 31.328125 -35.6875 L 31.328125 0 Z M 7.9375 0 "/></g></g></g><g fill="#242424" fill-opacity="1"><g transform="translate(1760.768401, 642.963546)"><g><path d="M 12.5625 -8.390625 C 6.21875 -15.304688 3.046875 -23.785156 3.046875 -33.828125 C 3.046875 -43.878906 6.21875 -52.382812 12.5625 -59.34375 C 18.90625 -66.3125 26.96875 -69.796875 36.75 -69.796875 C 45.738281 -69.796875 53.140625 -66.972656 58.953125 -61.328125 L 58.953125 -67.8125 L 82.359375 -67.8125 L 82.359375 0 L 59.21875 0 L 59.21875 -7.671875 L 58.953125 -7.671875 C 53.140625 -1.234375 45.738281 1.984375 36.75 1.984375 C 26.96875 1.984375 18.90625 -1.472656 12.5625 -8.390625 Z M 32.453125 -45.328125 C 29.410156 -42.335938 27.890625 -38.503906 27.890625 -33.828125 C 27.890625 -29.160156 29.34375 -25.351562 32.25 -22.40625 C 35.15625 -19.457031 38.988281 -17.984375 43.75 -17.984375 C 48.332031 -17.984375 52.097656 -19.476562 55.046875 -22.46875 C 58.003906 -25.46875 59.484375 -29.257812 59.484375 -33.84375 C 59.484375 -38.507812 57.960938 -42.335938 54.921875 -45.328125 C 51.878906 -48.328125 48.15625 -49.828125 43.75 -49.828125 C 39.257812 -49.828125 35.492188 -48.328125 32.453125 -45.328125 Z M 32.453125 -45.328125 "/></g></g></g><g fill="#242424" fill-opacity="1"><g transform="translate(1851.052435, 642.963546)"><g><path d="M 12.5625 -8.390625 C 6.21875 -15.304688 3.046875 -23.785156 3.046875 -33.828125 C 3.046875 -43.878906 6.21875 -52.382812 12.5625 -59.34375 C 18.90625 -66.3125 26.96875 -69.796875 36.75 -69.796875 C 45.738281 -69.796875 53.140625 -66.972656 58.953125 -61.328125 L 58.953125 -113.6875 L 82.359375 -113.6875 L 82.359375 0 L 59.21875 0 L 59.21875 -7.671875 L 58.953125 -7.671875 C 53.140625 -1.234375 45.738281 1.984375 36.75 1.984375 C 26.96875 1.984375 18.90625 -1.472656 12.5625 -8.390625 Z M 32.453125 -45.328125 C 29.410156 -42.335938 27.890625 -38.503906 27.890625 -33.828125 C 27.890625 -29.160156 29.34375 -25.351562 32.25 -22.40625 C 35.15625 -19.457031 38.988281 -17.984375 43.75 -17.984375 C 48.332031 -17.984375 52.097656 -19.476562 55.046875 -22.46875 C 58.003906 -25.46875 59.484375 -29.257812 59.484375 -33.84375 C 59.484375 -38.507812 57.960938 -42.335938 54.921875 -45.328125 C 51.878906 -48.328125 48.15625 -49.828125 43.75 -49.828125 C 39.257812 -49.828125 35.492188 -48.328125 32.453125 -45.328125 Z M 32.453125 -45.328125 "/></g></g></g><g fill="#242424" fill-opacity="1"><g transform="translate(1941.33647, 642.963546)"><g><path d="M 76.53125 -30.671875 L 27.359375 -30.671875 C 27.359375 -25.910156 28.898438 -22.382812 31.984375 -20.09375 C 35.066406 -17.800781 38.414062 -16.65625 42.03125 -16.65625 C 45.820312 -16.65625 48.816406 -17.160156 51.015625 -18.171875 C 53.222656 -19.191406 55.738281 -21.195312 58.5625 -24.1875 L 75.484375 -15.734375 C 68.429688 -3.921875 56.707031 1.984375 40.3125 1.984375 C 30.09375 1.984375 21.328125 -1.515625 14.015625 -8.515625 C 6.703125 -15.523438 3.046875 -23.960938 3.046875 -33.828125 C 3.046875 -43.703125 6.703125 -52.164062 14.015625 -59.21875 C 21.328125 -66.269531 30.09375 -69.796875 40.3125 -69.796875 C 51.0625 -69.796875 59.804688 -66.6875 66.546875 -60.46875 C 73.296875 -54.257812 76.671875 -45.382812 76.671875 -33.84375 C 76.671875 -32.25 76.625 -31.191406 76.53125 -30.671875 Z M 28.03125 -43.625 L 53.796875 -43.625 C 53.265625 -47.144531 51.875 -49.851562 49.625 -51.75 C 47.382812 -53.644531 44.503906 -54.59375 40.984375 -54.59375 C 37.097656 -54.59375 34.007812 -53.578125 31.71875 -51.546875 C 29.425781 -49.523438 28.195312 -46.882812 28.03125 -43.625 Z M 28.03125 -43.625 "/></g></g></g><g fill="#242424" fill-opacity="1"><g transform="translate(2021.045478, 642.963546)"><g><path d="M 23 -28.28125 C 27.226562 -28.28125 30.816406 -26.804688 33.765625 -23.859375 C 36.722656 -20.910156 38.203125 -17.320312 38.203125 -13.09375 C 38.203125 -8.945312 36.722656 -5.394531 33.765625 -2.4375 C 30.816406 0.507812 27.226562 1.984375 23 1.984375 C 18.851562 1.984375 15.304688 0.507812 12.359375 -2.4375 C 9.410156 -5.394531 7.9375 -8.945312 7.9375 -13.09375 C 7.9375 -17.320312 9.410156 -20.910156 12.359375 -23.859375 C 15.304688 -26.804688 18.851562 -28.28125 23 -28.28125 Z M 23 -28.28125 "/></g></g></g><g fill="#399b53" fill-opacity="1"><g transform="translate(1105.118497, 767.613415)"><g><path d="M 48.109375 -111.03125 C 54.015625 -111.03125 59.785156 -110.171875 65.421875 -108.453125 C 71.066406 -106.734375 75.253906 -105.039062 77.984375 -103.375 L 81.953125 -100.734375 L 71.90625 -80.90625 C 71.113281 -81.425781 70.007812 -82.101562 68.59375 -82.9375 C 67.1875 -83.78125 64.546875 -84.90625 60.671875 -86.3125 C 56.796875 -87.726562 53.179688 -88.4375 49.828125 -88.4375 C 45.691406 -88.4375 42.5 -87.550781 40.25 -85.78125 C 38 -84.019531 36.875 -81.644531 36.875 -78.65625 C 36.875 -77.15625 37.398438 -75.765625 38.453125 -74.484375 C 39.515625 -73.210938 41.320312 -71.847656 43.875 -70.390625 C 46.4375 -68.929688 48.6875 -67.757812 50.625 -66.875 C 52.5625 -66 55.554688 -64.679688 59.609375 -62.921875 C 66.660156 -59.921875 72.675781 -55.84375 77.65625 -50.6875 C 82.632812 -45.539062 85.125 -39.703125 85.125 -33.171875 C 85.125 -26.921875 84 -21.457031 81.75 -16.78125 C 79.507812 -12.113281 76.425781 -8.457031 72.5 -5.8125 C 68.582031 -3.164062 64.242188 -1.207031 59.484375 0.0625 C 54.722656 1.34375 49.566406 1.984375 44.015625 1.984375 C 39.253906 1.984375 34.582031 1.5 30 0.53125 C 25.425781 -0.4375 21.59375 -1.644531 18.5 -3.09375 C 15.414062 -4.550781 12.640625 -5.984375 10.171875 -7.390625 C 7.710938 -8.804688 5.910156 -10 4.765625 -10.96875 L 3.046875 -12.421875 L 15.46875 -33.3125 C 16.519531 -32.425781 17.972656 -31.300781 19.828125 -29.9375 C 21.679688 -28.570312 24.960938 -26.742188 29.671875 -24.453125 C 34.390625 -22.160156 38.554688 -21.015625 42.171875 -21.015625 C 52.648438 -21.015625 57.890625 -24.582031 57.890625 -31.71875 C 57.890625 -33.21875 57.515625 -34.609375 56.765625 -35.890625 C 56.023438 -37.171875 54.707031 -38.445312 52.8125 -39.71875 C 50.914062 -41 49.238281 -42.015625 47.78125 -42.765625 C 46.332031 -43.515625 43.953125 -44.660156 40.640625 -46.203125 C 37.335938 -47.742188 34.894531 -48.910156 33.3125 -49.703125 C 26.695312 -52.960938 21.582031 -57.035156 17.96875 -61.921875 C 14.363281 -66.816406 12.5625 -72.082031 12.5625 -77.71875 C 12.5625 -87.507812 16.171875 -95.507812 23.390625 -101.71875 C 30.617188 -107.925781 38.859375 -111.03125 48.109375 -111.03125 Z M 48.109375 -111.03125 "/></g></g></g><g fill="#399b53" fill-opacity="1"><g transform="translate(1193.948479, 767.613415)"><g><path d="M 91.734375 -109.0625 L 91.734375 -38.734375 C 91.734375 -25.335938 88.117188 -15.203125 80.890625 -8.328125 C 73.671875 -1.453125 63.097656 1.984375 49.171875 1.984375 C 35.242188 1.984375 24.664062 -1.453125 17.4375 -8.328125 C 10.21875 -15.203125 6.609375 -25.335938 6.609375 -38.734375 L 6.609375 -109.0625 L 31.453125 -109.0625 L 31.453125 -46 C 31.453125 -37.1875 32.835938 -31.0625 35.609375 -27.625 C 38.390625 -24.1875 42.910156 -22.46875 49.171875 -22.46875 C 55.429688 -22.46875 59.945312 -24.1875 62.71875 -27.625 C 65.5 -31.0625 66.890625 -37.1875 66.890625 -46 L 66.890625 -109.0625 Z M 91.734375 -109.0625 "/></g></g></g><g fill="#399b53" fill-opacity="1"><g transform="translate(1292.295963, 767.613415)"><g><path d="M 32.78125 -109.0625 L 32.78125 0 L 7.9375 0 L 7.9375 -109.0625 Z M 32.78125 -109.0625 "/></g></g></g><g fill="#399b53" fill-opacity="1"><g transform="translate(1333.009712, 767.613415)"><g><path d="M 1.0625 -87.25 L 1.0625 -109.0625 L 77.71875 -109.0625 L 77.71875 -87.25 L 51.8125 -87.25 L 51.8125 0 L 26.96875 0 L 26.96875 -87.25 Z M 1.0625 -87.25 "/></g></g></g><g fill="#399b53" fill-opacity="1"><g transform="translate(1411.793442, 767.613415)"><g><path d="M 70.328125 -109.0625 L 70.328125 -87.25 L 32.78125 -87.25 L 32.78125 -65.5625 L 68.734375 -65.5625 L 68.734375 -43.75 L 32.78125 -43.75 L 32.78125 -21.8125 L 70.328125 -21.8125 L 70.328125 0 L 7.9375 0 L 7.9375 -109.0625 Z M 70.328125 -109.0625 "/></g></g></g><g clip-path="url(#3a8967d9f1)"><path fill="#399b53" d="M 558.988281 629.945312 L 544.898438 652.933594 C 571.160156 648.777344 592.523438 652.335938 608.953125 663.640625 C 597.015625 647.753906 580.351562 636.515625 558.964844 629.945312 Z M 558.988281 629.945312 " fill-opacity="1" fill-rule="evenodd"/></g><path fill="#242424" d="M 547.390625 617.898438 C 577.925781 622.015625 601.632812 637.046875 618.488281 662.976562 C 614.273438 636.792969 601.039062 615.9375 578.734375 600.371094 Z M 547.390625 617.898438 " fill-opacity="1" fill-rule="evenodd"/><path fill="#399b53" d="M 562.839844 574.867188 C 604.484375 601.777344 627.042969 638.816406 630.53125 685.945312 C 637.492188 648.777344 627.105469 615.46875 599.417969 586.019531 C 622.617188 579.347656 640.492188 563.566406 653.023438 538.679688 C 694.371094 610.839844 681.199219 668.5 613.507812 711.679688 C 699.246094 681.914062 712.121094 591.160156 652.132812 510.449219 C 638.765625 555.292969 609.015625 576.765625 562.859375 574.867188 Z M 562.839844 574.867188 " fill-opacity="1" fill-rule="evenodd"/><g clip-path="url(#b3b560eed7)"><path fill="#242424" d="M 665.539062 500.449219 C 736.953125 591.011719 714.25 693.597656 611.019531 727.632812 C 719.25 721.363281 784.132812 652.082031 805.710938 519.789062 C 777.238281 558.46875 730.507812 552.03125 665.539062 500.449219 Z M 665.539062 500.449219 " fill-opacity="1" fill-rule="evenodd"/></g><g clip-path="url(#6dc55577aa)"><path fill="#242424" d="M 754.808594 522.730469 C 769.195312 522.730469 780.941406 510.980469 780.941406 496.546875 C 780.941406 482.128906 769.214844 470.359375 754.808594 470.359375 C 740.421875 470.359375 728.675781 482.109375 728.675781 496.546875 C 728.675781 510.960938 740.421875 522.730469 754.808594 522.730469 Z M 754.808594 522.730469 " fill-opacity="1" fill-rule="evenodd"/></g><path fill="#399b53" d="M 653.832031 607.449219 C 654.683594 608.941406 654.238281 610.414062 652.449219 611.84375 L 649.109375 606.023438 C 650.472656 605.789062 651.515625 605.789062 652.195312 606 C 652.875 606.234375 653.429688 606.703125 653.855469 607.429688 Z M 641.042969 601.074219 C 639.660156 601.308594 638.660156 601.308594 638 601.074219 C 637.339844 600.820312 636.832031 600.390625 636.46875 599.753906 C 636.085938 599.089844 635.980469 598.386719 636.171875 597.664062 C 636.363281 596.9375 636.894531 596.214844 637.832031 595.488281 L 641.066406 601.097656 Z M 659.707031 603.632812 C 658.367188 601.308594 656.578125 599.859375 654.34375 599.285156 C 652.109375 598.707031 649.171875 598.898438 645.535156 599.859375 L 641.917969 593.589844 C 642.917969 593.292969 643.980469 593.121094 645.085938 593.058594 C 646.195312 592.992188 647.320312 592.992188 648.472656 593.078125 L 648.449219 586.617188 C 646.855469 586.46875 645.277344 586.511719 643.726562 586.722656 C 642.171875 586.9375 640.597656 587.363281 638.957031 588.003906 L 637.53125 585.507812 L 633.214844 588.003906 L 634.597656 590.414062 C 633.382812 591.308594 632.363281 592.269531 631.53125 593.335938 C 630.703125 594.378906 630.105469 595.488281 629.765625 596.640625 C 629.402344 597.789062 629.296875 598.941406 629.425781 600.136719 C 629.554688 601.308594 629.957031 602.480469 630.617188 603.65625 C 631.320312 604.871094 632.128906 605.828125 633.023438 606.554688 C 633.9375 607.257812 634.957031 607.75 636.085938 608.027344 C 637.214844 608.304688 638.492188 608.367188 639.894531 608.21875 C 641.300781 608.089844 642.875 607.792969 644.621094 607.34375 L 648.429688 613.953125 C 647.046875 614.421875 645.660156 614.679688 644.257812 614.722656 C 642.875 614.765625 641.363281 614.699219 639.726562 614.488281 L 639.214844 621.097656 C 641.191406 621.355469 643.234375 621.332031 645.277344 621.035156 C 647.34375 620.734375 649.34375 620.203125 651.257812 619.371094 L 653.683594 623.570312 L 658.003906 621.078125 L 655.640625 616.960938 C 656.898438 616.066406 657.917969 615.0625 658.75 613.996094 C 659.578125 612.929688 660.152344 611.820312 660.515625 610.671875 C 660.878906 609.519531 660.984375 608.367188 660.878906 607.171875 C 660.769531 605.980469 660.367188 604.804688 659.707031 603.65625 Z M 659.707031 603.632812 " fill-opacity="1" fill-rule="evenodd"/></svg>