<?xml version="1.0" encoding="UTF-8" standalone="no"?>
<!-- Generator: Adobe Illustrator 27.5.0, SVG Export Plug-In . SVG Version: 6.00 Build 0)  -->

<svg
   version="1.1"
   id="BACKGROUND"
   x="0px"
   y="0px"
   viewBox="0 0 750 500"
   style="enable-background:new 0 0 750 500;"
   xml:space="preserve"
   sodipodi:docname="bgImage.svg"
   inkscape:version="1.3 (0e150ed, 2023-07-21)"
   xmlns:inkscape="http://www.inkscape.org/namespaces/inkscape"
   xmlns:sodipodi="http://sodipodi.sourceforge.net/DTD/sodipodi-0.dtd"
   xmlns:xlink="http://www.w3.org/1999/xlink"
   xmlns="http://www.w3.org/2000/svg"
   xmlns:svg="http://www.w3.org/2000/svg"><defs
   id="defs47" /><sodipodi:namedview
   id="namedview47"
   pagecolor="#ffffff"
   bordercolor="#000000"
   borderopacity="0.25"
   inkscape:showpageshadow="2"
   inkscape:pageopacity="0.0"
   inkscape:pagecheckerboard="0"
   inkscape:deskcolor="#d1d1d1"
   inkscape:zoom="0.472"
   inkscape:cx="375"
   inkscape:cy="250"
   inkscape:window-width="1312"
   inkscape:window-height="449"
   inkscape:window-x="0"
   inkscape:window-y="25"
   inkscape:window-maximized="0"
   inkscape:current-layer="BACKGROUND" />&#10;<g
   id="g47"
   transform="rotate(180,375,250)">&#10;	<defs
   id="defs1">&#10;		<rect
   id="SVGID_1_"
   width="750"
   height="500"
   x="0"
   y="0" />&#10;	</defs>&#10;	<clipPath
   id="SVGID_00000075875541334376401330000008157068675390563741_">&#10;		<use
   xlink:href="#SVGID_1_"
   style="overflow:visible"
   id="use1" />&#10;	</clipPath>&#10;	<g
   clip-path="url(#SVGID_00000075875541334376401330000008157068675390563741_)"
   id="g46">&#10;		&#10;			<linearGradient
   id="SVGID_00000119833591091870093620000009696265442413465216_"
   gradientUnits="userSpaceOnUse"
   x1="0"
   y1="250"
   x2="750"
   y2="250">&#10;			<stop
   offset="0"
   style="stop-color:#FF7700"
   id="stop1" />&#10;			<stop
   offset="1"
   style="stop-color:#6B369E"
   id="stop2" />&#10;		</linearGradient>&#10;		<rect
   style="fill:url(#SVGID_00000119833591091870093620000009696265442413465216_)"
   width="750"
   height="500"
   id="rect2"
   x="0"
   y="0" />&#10;		<g
   id="g20">&#10;			&#10;				<linearGradient
   id="SVGID_00000146501575201066179860000016957392670044120492_"
   gradientUnits="userSpaceOnUse"
   x1="-7.0864"
   y1="-97.9646"
   x2="474.72491"
   y2="-97.9646"
   gradientTransform="matrix(-0.8046,0.8046,-0.7071,-0.7071,676.8951,-90.4428)">&#10;				<stop
   offset="0"
   style="stop-color:#FF7700"
   id="stop3" />&#10;				<stop
   offset="1"
   style="stop-color:#6B369E"
   id="stop4" />&#10;			</linearGradient>&#10;			<path
   style="fill:url(#SVGID_00000146501575201066179860000016957392670044120492_)"
   d="M 364.202,215.731 606.807,-26.874 c 40.057,-40.057 105.003,-40.057 145.061,0 v 0 c 40.057,40.057 40.057,105.003 0,145.061 L 509.263,360.792 c -40.058,40.058 -105.004,40.058 -145.061,0 v 0 c -40.057,-40.058 -40.057,-105.004 0,-145.061 z"
   id="path4" />&#10;			&#10;				<linearGradient
   id="SVGID_00000114052856001273329330000003333676582553057950_"
   gradientUnits="userSpaceOnUse"
   x1="70.103699"
   y1="6.3936"
   x2="410.7023"
   y2="6.3936"
   gradientTransform="matrix(-0.9168,0.9168,-0.7071,-0.7071,792.7654,-206.3131)">&#10;				<stop
   offset="0"
   style="stop-color:#FF7700"
   id="stop5" />&#10;				<stop
   offset="1"
   style="stop-color:#6B369E;stop-opacity:0"
   id="stop6" />&#10;			</linearGradient>&#10;			<path
   style="fill:url(#SVGID_00000114052856001273329330000003333676582553057950_)"
   d="M 411.713,63.145 621.42,-146.563 c 28.319,-28.319 74.234,-28.319 102.553,0 v 0 c 28.319,28.319 28.319,74.234 0,102.553 L 514.266,165.698 c -28.319,28.319 -74.234,28.319 -102.553,0 v 0 c -28.32,-28.32 -28.32,-74.234 0,-102.553 z"
   id="path6" />&#10;			&#10;				<linearGradient
   id="SVGID_00000178204314360356147050000012265423739241756554_"
   gradientUnits="userSpaceOnUse"
   x1="69.844704"
   y1="-198.18021"
   x2="438.74789"
   y2="-198.18021"
   gradientTransform="matrix(-0.9168,0.9168,-0.7071,-0.7071,792.7654,-206.3131)">&#10;				<stop
   offset="0"
   style="stop-color:#FF7700"
   id="stop7" />&#10;				<stop
   offset="1"
   style="stop-color:#6B369E;stop-opacity:0"
   id="stop8" />&#10;			</linearGradient>&#10;			<path
   style="fill:url(#SVGID_00000178204314360356147050000012265423739241756554_)"
   d="M 530.654,224.988 757.789,-2.146 c 30.673,-30.673 80.403,-30.673 111.076,0 v 0 c 30.673,30.673 30.673,80.403 0,111.076 L 641.73,336.064 c -30.673,30.673 -80.403,30.673 -111.076,0 v 0 c -30.672,-30.672 -30.672,-80.403 0,-111.076 z"
   id="path8" />&#10;			&#10;				<linearGradient
   id="SVGID_00000121958716612037620580000002170771189089396622_"
   gradientUnits="userSpaceOnUse"
   x1="186.40581"
   y1="-276.54559"
   x2="555.3092"
   y2="-276.54559"
   gradientTransform="matrix(-0.9168,0.9168,-0.7071,-0.7071,554.0285,-93.4377)">&#10;				<stop
   offset="0"
   style="stop-color:#FF7700"
   id="stop9" />&#10;				<stop
   offset="1"
   style="stop-color:#6B369E;stop-opacity:0"
   id="stop10" />&#10;			</linearGradient>&#10;			<path
   style="fill:url(#SVGID_00000121958716612037620580000002170771189089396622_)"
   d="M 240.466,500.139 467.601,273.004 c 30.673,-30.673 80.403,-30.673 111.076,0 v 0 c 30.673,30.673 30.673,80.403 0,111.076 L 351.542,611.215 c -30.673,30.673 -80.403,30.673 -111.076,0 v 0 c -30.672,-30.673 -30.672,-80.403 0,-111.076 z"
   id="path10" />&#10;			&#10;				<linearGradient
   id="SVGID_00000149377453377349736130000008805812707812715188_"
   gradientUnits="userSpaceOnUse"
   x1="20.864401"
   y1="-491.1806"
   x2="389.7677"
   y2="-491.1806"
   gradientTransform="matrix(-0.9168,0.9168,-0.7071,-0.7071,554.0285,-93.4377)">&#10;				<stop
   offset="0"
   style="stop-color:#FF7700"
   id="stop11" />&#10;				<stop
   offset="1"
   style="stop-color:#6B369E;stop-opacity:0"
   id="stop12" />&#10;			</linearGradient>&#10;			<path
   style="fill:url(#SVGID_00000149377453377349736130000008805812707812715188_)"
   d="M 544.003,500.139 771.138,273.004 c 30.673,-30.673 80.403,-30.673 111.076,0 v 0 c 30.673,30.673 30.673,80.403 0,111.076 L 655.079,611.215 c -30.673,30.673 -80.403,30.673 -111.076,0 v 0 c -30.672,-30.673 -30.672,-80.403 0,-111.076 z"
   id="path12" />&#10;			&#10;				<linearGradient
   id="SVGID_00000127746461273679944590000002561149358140207524_"
   gradientUnits="userSpaceOnUse"
   x1="-636.09802"
   y1="-302.38571"
   x2="-385.3374"
   y2="-302.38571"
   gradientTransform="matrix(0.9168,-0.9168,0.7071,0.7071,979.0518,43.1359)">&#10;				<stop
   offset="0"
   style="stop-color:#FF7700"
   id="stop13" />&#10;				<stop
   offset="1"
   style="stop-color:#6B369E;stop-opacity:0"
   id="stop14" />&#10;			</linearGradient>&#10;			<path
   style="fill:url(#SVGID_00000127746461273679944590000002561149358140207524_)"
   d="M 411.958,258.1 257.564,412.494 c -20.85,20.85 -54.654,20.85 -75.503,0 v 0 c -20.85,-20.85 -20.85,-54.654 0,-75.503 L 336.455,182.597 c 20.85,-20.85 54.654,-20.85 75.503,0 v 0 c 20.849,20.849 20.849,54.653 0,75.503 z"
   id="path14" />&#10;			&#10;				<linearGradient
   id="SVGID_00000030475525429705896720000013624389727133739909_"
   gradientUnits="userSpaceOnUse"
   x1="307.73621"
   y1="291.58429"
   x2="938.68359"
   y2="291.58429">&#10;				<stop
   offset="0"
   style="stop-color:#FF7700"
   id="stop15" />&#10;				<stop
   offset="1"
   style="stop-color:#6B369E;stop-opacity:0"
   id="stop16" />&#10;			</linearGradient>&#10;			<polygon
   style="fill:url(#SVGID_00000030475525429705896720000013624389727133739909_)"
   points="768.726,60.663 938.684,60.663 476.841,522.505 307.736,521.653 "
   id="polygon16" />&#10;			&#10;				<linearGradient
   id="SVGID_00000116925854307508684800000011940687320426002593_"
   gradientUnits="userSpaceOnUse"
   x1="-221.3756"
   y1="140.3842"
   x2="409.57169"
   y2="140.3842">&#10;				<stop
   offset="0"
   style="stop-color:#FF7700"
   id="stop17" />&#10;				<stop
   offset="1"
   style="stop-color:#FF7700;stop-opacity:0"
   id="stop18" />&#10;			</linearGradient>&#10;			<polygon
   style="fill:url(#SVGID_00000116925854307508684800000011940687320426002593_)"
   points="239.614,-90.537 409.572,-90.537 -52.27,371.305 -221.376,370.453 "
   id="polygon18" />&#10;			&#10;				<linearGradient
   id="SVGID_00000023275963406207467910000006157478150114216615_"
   gradientUnits="userSpaceOnUse"
   x1="-124.48"
   y1="193.254"
   x2="437.33621"
   y2="193.254">&#10;				<stop
   offset="0"
   style="stop-color:#FF7700"
   id="stop19" />&#10;				<stop
   offset="1"
   style="stop-color:#FF7700;stop-opacity:0"
   id="stop20" />&#10;			</linearGradient>&#10;			<polygon
   style="fill:url(#SVGID_00000023275963406207467910000006157478150114216615_)"
   points="286,-12.366 437.336,-12.366 26.097,398.874 -124.48,398.115 "
   id="polygon20" />&#10;		</g>&#10;		<g
   id="g45">&#10;			<g
   id="g22">&#10;				&#10;					<linearGradient
   id="SVGID_00000037691677466208033640000005181600155689583240_"
   gradientUnits="userSpaceOnUse"
   x1="214.10741"
   y1="292.85049"
   x2="353.6153"
   y2="153.34261">&#10;					<stop
   offset="0"
   style="stop-color:#FFFF00"
   id="stop21" />&#10;					<stop
   offset="1"
   style="stop-color:#FFFF00;stop-opacity:0"
   id="stop22" />&#10;				</linearGradient>&#10;				<path
   style="fill:url(#SVGID_00000037691677466208033640000005181600155689583240_)"
   d="M 353.263,153.695 214.815,292.85 c -0.195,0.196 -0.511,0.197 -0.707,0.002 -0.196,-0.195 -0.197,-0.511 -0.002,-0.707 l 0.002,-0.002 z"
   id="path22" />&#10;			</g>&#10;			<g
   id="g24">&#10;				&#10;					<linearGradient
   id="SVGID_00000162345870377132487260000016559571592597503637_"
   gradientUnits="userSpaceOnUse"
   x1="244.01711"
   y1="61.018101"
   x2="333.72198"
   y2="-28.6868">&#10;					<stop
   offset="0"
   style="stop-color:#FFFF00"
   id="stop23" />&#10;					<stop
   offset="1"
   style="stop-color:#FFFF00;stop-opacity:0"
   id="stop24" />&#10;				</linearGradient>&#10;				<path
   style="fill:url(#SVGID_00000162345870377132487260000016559571592597503637_)"
   d="m 333.37,-28.335 -88.644,89.351 c -0.194,0.196 -0.511,0.197 -0.707,0.003 -0.196,-0.194 -0.197,-0.511 -0.003,-0.707 l 0.003,-0.003 z"
   id="path24" />&#10;			</g>&#10;			<g
   id="g26">&#10;				&#10;					<linearGradient
   id="SVGID_00000128485849728511175910000017316759656688621715_"
   gradientUnits="userSpaceOnUse"
   x1="86.672302"
   y1="481.32419"
   x2="163.75011"
   y2="404.2464">&#10;					<stop
   offset="0"
   style="stop-color:#FFFF00"
   id="stop25" />&#10;					<stop
   offset="1"
   style="stop-color:#FFFF00;stop-opacity:0"
   id="stop26" />&#10;				</linearGradient>&#10;				<path
   style="fill:url(#SVGID_00000128485849728511175910000017316759656688621715_)"
   d="m 163.398,404.599 -76.017,76.724 c -0.194,0.196 -0.511,0.198 -0.707,0.003 -0.196,-0.194 -0.198,-0.511 -0.003,-0.707 l 0.003,-0.003 z"
   id="path26" />&#10;			</g>&#10;			<g
   id="g28">&#10;				&#10;					<linearGradient
   id="SVGID_00000057861485266707019170000008217628671397847948_"
   gradientUnits="userSpaceOnUse"
   x1="17.272301"
   y1="189.32069"
   x2="156.7802"
   y2="49.812801">&#10;					<stop
   offset="0"
   style="stop-color:#FFFF00"
   id="stop27" />&#10;					<stop
   offset="1"
   style="stop-color:#FFFF00;stop-opacity:0"
   id="stop28" />&#10;				</linearGradient>&#10;				<path
   style="fill:url(#SVGID_00000057861485266707019170000008217628671397847948_)"
   d="M 156.428,50.165 17.98,189.32 c -0.195,0.196 -0.511,0.197 -0.707,0.002 -0.196,-0.195 -0.196,-0.511 -0.002,-0.707 l 0.002,-0.002 z"
   id="path28" />&#10;			</g>&#10;			<g
   id="g30">&#10;				&#10;					<linearGradient
   id="SVGID_00000161604005558816169030000003332063511968516745_"
   gradientUnits="userSpaceOnUse"
   x1="-63.605801"
   y1="251.8069"
   x2="75.902199"
   y2="112.2989">&#10;					<stop
   offset="0"
   style="stop-color:#FFFF00"
   id="stop29" />&#10;					<stop
   offset="1"
   style="stop-color:#FFFF00;stop-opacity:0"
   id="stop30" />&#10;				</linearGradient>&#10;				<path
   style="fill:url(#SVGID_00000161604005558816169030000003332063511968516745_)"
   d="M 75.55,112.651 -62.898,251.806 c -0.195,0.196 -0.511,0.197 -0.707,0.002 -0.196,-0.195 -0.196,-0.511 -0.002,-0.707 l 0.002,-0.002 z"
   id="path30" />&#10;			</g>&#10;			<g
   id="g32">&#10;				&#10;					<linearGradient
   id="SVGID_00000138551962110847848850000010151031692749120177_"
   gradientUnits="userSpaceOnUse"
   x1="508.28961"
   y1="154.0509"
   x2="558.38599"
   y2="103.9545">&#10;					<stop
   offset="0"
   style="stop-color:#FFFF00"
   id="stop31" />&#10;					<stop
   offset="1"
   style="stop-color:#FFFF00;stop-opacity:0"
   id="stop32" />&#10;				</linearGradient>&#10;				<path
   style="fill:url(#SVGID_00000138551962110847848850000010151031692749120177_)"
   d="M 558.035,104.306 509,154.049 c -0.194,0.197 -0.51,0.199 -0.707,0.005 -0.197,-0.194 -0.199,-0.51 -0.005,-0.707 10e-4,-0.001 0.004,-0.004 0.005,-0.005 z"
   id="path32" />&#10;			</g>&#10;			<g
   id="g34">&#10;				&#10;					<linearGradient
   id="SVGID_00000098930248602864680110000017661717675309788313_"
   gradientUnits="userSpaceOnUse"
   x1="12.2138"
   y1="354.48029"
   x2="62.3102"
   y2="304.38391">&#10;					<stop
   offset="0"
   style="stop-color:#FFFF00"
   id="stop33" />&#10;					<stop
   offset="1"
   style="stop-color:#FFFF00;stop-opacity:0"
   id="stop34" />&#10;				</linearGradient>&#10;				<path
   style="fill:url(#SVGID_00000098930248602864680110000017661717675309788313_)"
   d="m 61.959,304.735 -49.035,49.743 c -0.194,0.197 -0.51,0.199 -0.707,0.005 -0.196,-0.194 -0.199,-0.51 -0.005,-0.707 10e-4,-0.001 0.004,-0.004 0.005,-0.005 z"
   id="path34" />&#10;			</g>&#10;			<g
   id="g36">&#10;				&#10;					<linearGradient
   id="SVGID_00000093148547042102324800000012175279122207261839_"
   gradientUnits="userSpaceOnUse"
   x1="674.70911"
   y1="25.050699"
   x2="724.80548"
   y2="-25.0457">&#10;					<stop
   offset="0"
   style="stop-color:#FFFF00"
   id="stop35" />&#10;					<stop
   offset="1"
   style="stop-color:#FFFF00;stop-opacity:0"
   id="stop36" />&#10;				</linearGradient>&#10;				<path
   style="fill:url(#SVGID_00000093148547042102324800000012175279122207261839_)"
   d="m 724.454,-24.695 -49.035,49.743 c -0.194,0.197 -0.51,0.199 -0.707,0.005 -0.197,-0.194 -0.199,-0.51 -0.005,-0.707 10e-4,-0.001 0.004,-0.004 0.005,-0.005 z"
   id="path36" />&#10;			</g>&#10;			<g
   id="g38">&#10;				&#10;					<linearGradient
   id="SVGID_00000159438970907477085870000013725498741025713293_"
   gradientUnits="userSpaceOnUse"
   x1="488.27969"
   y1="463.23651"
   x2="627.7876"
   y2="323.72861">&#10;					<stop
   offset="0"
   style="stop-color:#FFFF00"
   id="stop37" />&#10;					<stop
   offset="1"
   style="stop-color:#FFFF00;stop-opacity:0"
   id="stop38" />&#10;				</linearGradient>&#10;				<path
   style="fill:url(#SVGID_00000159438970907477085870000013725498741025713293_)"
   d="M 627.436,324.081 488.988,463.236 c -0.195,0.196 -0.511,0.197 -0.707,0.002 -0.196,-0.195 -0.197,-0.511 -0.002,-0.707 l 0.002,-0.002 z"
   id="path38" />&#10;			</g>&#10;			<g
   id="g40">&#10;				&#10;					<linearGradient
   id="SVGID_00000156571619371976151730000002836383126324532359_"
   gradientUnits="userSpaceOnUse"
   x1="699.40527"
   y1="258.72141"
   x2="838.91321"
   y2="119.2135">&#10;					<stop
   offset="0"
   style="stop-color:#FFFF00"
   id="stop39" />&#10;					<stop
   offset="1"
   style="stop-color:#FFFF00;stop-opacity:0"
   id="stop40" />&#10;				</linearGradient>&#10;				<path
   style="fill:url(#SVGID_00000156571619371976151730000002836383126324532359_)"
   d="M 838.561,119.566 700.113,258.72 c -0.195,0.196 -0.511,0.197 -0.707,0.002 -0.196,-0.195 -0.196,-0.511 -0.002,-0.707 l 0.002,-0.002 z"
   id="path40" />&#10;			</g>&#10;			<g
   id="g42">&#10;				&#10;					<linearGradient
   id="SVGID_00000018203445779388188930000014840759187811431049_"
   gradientUnits="userSpaceOnUse"
   x1="725.94708"
   y1="417.53439"
   x2="774.04773"
   y2="369.43381">&#10;					<stop
   offset="0"
   style="stop-color:#FFFF00"
   id="stop41" />&#10;					<stop
   offset="1"
   style="stop-color:#FFFF00;stop-opacity:0"
   id="stop42" />&#10;				</linearGradient>&#10;				<path
   style="fill:url(#SVGID_00000018203445779388188930000014840759187811431049_)"
   d="m 773.697,369.785 -47.04,47.747 c -0.194,0.197 -0.51,0.199 -0.707,0.005 -0.197,-0.194 -0.199,-0.51 -0.005,-0.707 10e-4,-10e-4 0.004,-0.004 0.005,-0.005 z"
   id="path42" />&#10;			</g>&#10;			<g
   id="g44">&#10;				&#10;					<linearGradient
   id="SVGID_00000062185700009013148750000003714740578523127960_"
   gradientUnits="userSpaceOnUse"
   x1="316.78799"
   y1="41.420399"
   x2="456.2959"
   y2="-98.087502">&#10;					<stop
   offset="0"
   style="stop-color:#FFFF00"
   id="stop43" />&#10;					<stop
   offset="1"
   style="stop-color:#FFFF00;stop-opacity:0"
   id="stop44" />&#10;				</linearGradient>&#10;				<path
   style="fill:url(#SVGID_00000062185700009013148750000003714740578523127960_)"
   d="M 455.944,-97.735 317.496,41.419 c -0.195,0.196 -0.511,0.197 -0.707,0.002 -0.196,-0.195 -0.197,-0.511 -0.002,-0.707 l 0.002,-0.002 z"
   id="path44" />&#10;			</g>&#10;		</g>&#10;	</g>&#10;</g>&#10;</svg>
