<svg xmlns="http://www.w3.org/2000/svg" xmlns:xlink="http://www.w3.org/1999/xlink" width="500" zoomAndPan="magnify" viewBox="0 0 375 112.499997" height="150" preserveAspectRatio="xMidYMid meet" version="1.0"><defs><g/><clipPath id="69f3901cb1"><path d="M 0.828125 63 L 16 63 L 16 72 L 0.828125 72 Z M 0.828125 63 " clip-rule="nonzero"/></clipPath><clipPath id="62b913b02e"><path d="M 16 33 L 62.058594 33 L 62.058594 86.132812 L 16 86.132812 Z M 16 33 " clip-rule="nonzero"/></clipPath><clipPath id="0884f39d2a"><path d="M 43 26.398438 L 57 26.398438 L 57 39 L 43 39 Z M 43 26.398438 " clip-rule="nonzero"/></clipPath></defs><g fill="#000000" fill-opacity="1"><g transform="translate(61.313709, 69.806414)"><g><path d="M 3.0625 -42.03125 L 15.234375 -42.03125 C 21.078125 -42.03125 26.070312 -40.035156 30.21875 -36.046875 C 34.363281 -32.054688 36.4375 -27.054688 36.4375 -21.046875 C 36.4375 -14.992188 34.367188 -9.972656 30.234375 -5.984375 C 26.109375 -1.992188 21.109375 0 15.234375 0 L 3.0625 0 Z M 12.640625 -8.5625 L 14.109375 -8.5625 C 17.609375 -8.5625 20.46875 -9.738281 22.6875 -12.09375 C 24.914062 -14.457031 26.050781 -17.425781 26.09375 -21 C 26.09375 -24.5625 24.976562 -27.53125 22.75 -29.90625 C 20.519531 -32.28125 17.640625 -33.46875 14.109375 -33.46875 L 12.640625 -33.46875 Z M 12.640625 -8.5625 "/></g></g></g><g fill="#000000" fill-opacity="1"><g transform="translate(94.119023, 69.806414)"><g><path d="M 3.921875 -40.703125 C 4.972656 -41.765625 6.226562 -42.296875 7.6875 -42.296875 C 9.15625 -42.296875 10.414062 -41.765625 11.46875 -40.703125 C 12.519531 -39.648438 13.046875 -38.394531 13.046875 -36.9375 C 13.046875 -35.476562 12.519531 -34.222656 11.46875 -33.171875 C 10.414062 -32.117188 9.15625 -31.59375 7.6875 -31.59375 C 6.226562 -31.59375 4.972656 -32.117188 3.921875 -33.171875 C 2.867188 -34.222656 2.34375 -35.476562 2.34375 -36.9375 C 2.34375 -38.394531 2.867188 -39.648438 3.921875 -40.703125 Z M 3.0625 -26.140625 L 3.0625 0 L 12.078125 0 L 12.078125 -26.140625 Z M 3.0625 -26.140625 "/></g></g></g><g fill="#000000" fill-opacity="1"><g transform="translate(104.713588, 69.806414)"><g><path d="M 9.6875 -26.140625 L 16.046875 -11.921875 L 22.421875 -26.140625 L 33.125 -26.140625 L 19.109375 0 L 13 0 L -1.015625 -26.140625 Z M 9.6875 -26.140625 "/></g></g></g><g fill="#000000" fill-opacity="1"><g transform="translate(132.017153, 69.806414)"><g><path d="M 29.5 -11.828125 L 10.546875 -11.828125 C 10.546875 -9.984375 11.140625 -8.617188 12.328125 -7.734375 C 13.515625 -6.859375 14.804688 -6.421875 16.203125 -6.421875 C 17.660156 -6.421875 18.8125 -6.613281 19.65625 -7 C 20.507812 -7.394531 21.484375 -8.171875 22.578125 -9.328125 L 29.09375 -6.0625 C 26.375 -1.507812 21.859375 0.765625 15.546875 0.765625 C 11.597656 0.765625 8.210938 -0.582031 5.390625 -3.28125 C 2.578125 -5.988281 1.171875 -9.242188 1.171875 -13.046875 C 1.171875 -16.847656 2.578125 -20.109375 5.390625 -22.828125 C 8.210938 -25.546875 11.597656 -26.90625 15.546875 -26.90625 C 19.679688 -26.90625 23.046875 -25.707031 25.640625 -23.3125 C 28.242188 -20.914062 29.546875 -17.492188 29.546875 -13.046875 C 29.546875 -12.429688 29.53125 -12.023438 29.5 -11.828125 Z M 10.796875 -16.8125 L 20.734375 -16.8125 C 20.535156 -18.175781 20 -19.222656 19.125 -19.953125 C 18.257812 -20.679688 17.148438 -21.046875 15.796875 -21.046875 C 14.296875 -21.046875 13.101562 -20.65625 12.21875 -19.875 C 11.34375 -19.09375 10.867188 -18.070312 10.796875 -16.8125 Z M 10.796875 -16.8125 "/></g></g></g><g fill="#000000" fill-opacity="1"><g transform="translate(157.945283, 69.806414)"><g><path d="M 3.0625 0 L 3.0625 -26.140625 L 12.078125 -26.140625 L 12.078125 -22.375 L 12.171875 -22.375 C 12.242188 -22.507812 12.351562 -22.675781 12.5 -22.875 C 12.65625 -23.082031 12.988281 -23.441406 13.5 -23.953125 C 14.007812 -24.460938 14.550781 -24.921875 15.125 -25.328125 C 15.707031 -25.734375 16.457031 -26.097656 17.375 -26.421875 C 18.289062 -26.742188 19.222656 -26.90625 20.171875 -26.90625 C 21.160156 -26.90625 22.128906 -26.769531 23.078125 -26.5 C 24.035156 -26.226562 24.734375 -25.957031 25.171875 -25.6875 L 25.890625 -25.265625 L 22.109375 -17.625 C 20.992188 -18.582031 19.429688 -19.0625 17.421875 -19.0625 C 16.335938 -19.0625 15.40625 -18.820312 14.625 -18.34375 C 13.84375 -17.863281 13.289062 -17.285156 12.96875 -16.609375 C 12.644531 -15.929688 12.414062 -15.351562 12.28125 -14.875 C 12.144531 -14.40625 12.078125 -14.03125 12.078125 -13.75 L 12.078125 0 Z M 3.0625 0 "/></g></g></g><g fill="#000000" fill-opacity="1"><g transform="translate(178.52449, 69.806414)"><g><path d="M 14.421875 -26.90625 C 15.910156 -26.90625 17.382812 -26.734375 18.84375 -26.390625 C 20.3125 -26.054688 21.398438 -25.71875 22.109375 -25.375 L 23.1875 -24.859375 L 20.234375 -18.953125 C 18.191406 -20.035156 16.253906 -20.578125 14.421875 -20.578125 C 13.398438 -20.578125 12.675781 -20.46875 12.25 -20.25 C 11.832031 -20.03125 11.625 -19.613281 11.625 -19 C 11.625 -18.863281 11.640625 -18.726562 11.671875 -18.59375 C 11.703125 -18.457031 11.769531 -18.328125 11.875 -18.203125 C 11.976562 -18.085938 12.070312 -17.988281 12.15625 -17.90625 C 12.238281 -17.820312 12.378906 -17.726562 12.578125 -17.625 C 12.785156 -17.53125 12.945312 -17.457031 13.0625 -17.40625 C 13.1875 -17.351562 13.382812 -17.273438 13.65625 -17.171875 C 13.925781 -17.066406 14.128906 -16.988281 14.265625 -16.9375 C 14.398438 -16.882812 14.628906 -16.804688 14.953125 -16.703125 C 15.273438 -16.609375 15.519531 -16.546875 15.6875 -16.515625 C 16.738281 -16.203125 17.65625 -15.859375 18.4375 -15.484375 C 19.21875 -15.109375 20.039062 -14.597656 20.90625 -13.953125 C 21.78125 -13.316406 22.453125 -12.503906 22.921875 -11.515625 C 23.398438 -10.523438 23.640625 -9.40625 23.640625 -8.15625 C 23.640625 -2.207031 19.515625 0.765625 11.265625 0.765625 C 9.390625 0.765625 7.609375 0.476562 5.921875 -0.09375 C 4.242188 -0.675781 3.035156 -1.253906 2.296875 -1.828125 L 1.171875 -2.75 L 4.84375 -8.921875 C 5.113281 -8.679688 5.46875 -8.398438 5.90625 -8.078125 C 6.351562 -7.753906 7.148438 -7.3125 8.296875 -6.75 C 9.453125 -6.1875 10.457031 -5.90625 11.3125 -5.90625 C 13.175781 -5.90625 14.109375 -6.535156 14.109375 -7.796875 C 14.109375 -8.367188 13.867188 -8.816406 13.390625 -9.140625 C 12.921875 -9.460938 12.117188 -9.828125 10.984375 -10.234375 C 9.847656 -10.648438 8.957031 -11.023438 8.3125 -11.359375 C 6.675781 -12.210938 5.378906 -13.171875 4.421875 -14.234375 C 3.472656 -15.304688 3 -16.726562 3 -18.5 C 3 -21.144531 4.023438 -23.207031 6.078125 -24.6875 C 8.140625 -26.164062 10.921875 -26.90625 14.421875 -26.90625 Z M 14.421875 -26.90625 "/></g></g></g><g fill="#000000" fill-opacity="1"><g transform="translate(198.798057, 69.806414)"><g><path d="M 29.5 -11.828125 L 10.546875 -11.828125 C 10.546875 -9.984375 11.140625 -8.617188 12.328125 -7.734375 C 13.515625 -6.859375 14.804688 -6.421875 16.203125 -6.421875 C 17.660156 -6.421875 18.8125 -6.613281 19.65625 -7 C 20.507812 -7.394531 21.484375 -8.171875 22.578125 -9.328125 L 29.09375 -6.0625 C 26.375 -1.507812 21.859375 0.765625 15.546875 0.765625 C 11.597656 0.765625 8.210938 -0.582031 5.390625 -3.28125 C 2.578125 -5.988281 1.171875 -9.242188 1.171875 -13.046875 C 1.171875 -16.847656 2.578125 -20.109375 5.390625 -22.828125 C 8.210938 -25.546875 11.597656 -26.90625 15.546875 -26.90625 C 19.679688 -26.90625 23.046875 -25.707031 25.640625 -23.3125 C 28.242188 -20.914062 29.546875 -17.492188 29.546875 -13.046875 C 29.546875 -12.429688 29.53125 -12.023438 29.5 -11.828125 Z M 10.796875 -16.8125 L 20.734375 -16.8125 C 20.535156 -18.175781 20 -19.222656 19.125 -19.953125 C 18.257812 -20.679688 17.148438 -21.046875 15.796875 -21.046875 C 14.296875 -21.046875 13.101562 -20.65625 12.21875 -19.875 C 11.34375 -19.09375 10.867188 -18.070312 10.796875 -16.8125 Z M 10.796875 -16.8125 "/></g></g></g><g fill="#000000" fill-opacity="1"><g transform="translate(224.726192, 69.806414)"><g><path d="M 0.40625 -33.625 L 0.40625 -42.03125 L 29.953125 -42.03125 L 29.953125 -33.625 L 19.96875 -33.625 L 19.96875 0 L 10.390625 0 L 10.390625 -33.625 Z M 0.40625 -33.625 "/></g></g></g><g fill="#000000" fill-opacity="1"><g transform="translate(250.297723, 69.806414)"><g><path d="M 3.0625 0 L 3.0625 -26.140625 L 12.078125 -26.140625 L 12.078125 -22.375 L 12.171875 -22.375 C 12.242188 -22.507812 12.351562 -22.675781 12.5 -22.875 C 12.65625 -23.082031 12.988281 -23.441406 13.5 -23.953125 C 14.007812 -24.460938 14.550781 -24.921875 15.125 -25.328125 C 15.707031 -25.734375 16.457031 -26.097656 17.375 -26.421875 C 18.289062 -26.742188 19.222656 -26.90625 20.171875 -26.90625 C 21.160156 -26.90625 22.128906 -26.769531 23.078125 -26.5 C 24.035156 -26.226562 24.734375 -25.957031 25.171875 -25.6875 L 25.890625 -25.265625 L 22.109375 -17.625 C 20.992188 -18.582031 19.429688 -19.0625 17.421875 -19.0625 C 16.335938 -19.0625 15.40625 -18.820312 14.625 -18.34375 C 13.84375 -17.863281 13.289062 -17.285156 12.96875 -16.609375 C 12.644531 -15.929688 12.414062 -15.351562 12.28125 -14.875 C 12.144531 -14.40625 12.078125 -14.03125 12.078125 -13.75 L 12.078125 0 Z M 3.0625 0 "/></g></g></g><g fill="#000000" fill-opacity="1"><g transform="translate(270.876929, 69.806414)"><g><path d="M 4.84375 -3.234375 C 2.394531 -5.898438 1.171875 -9.171875 1.171875 -13.046875 C 1.171875 -16.921875 2.394531 -20.195312 4.84375 -22.875 C 7.289062 -25.5625 10.398438 -26.90625 14.171875 -26.90625 C 17.628906 -26.90625 20.476562 -25.816406 22.71875 -23.640625 L 22.71875 -26.140625 L 31.75 -26.140625 L 31.75 0 L 22.828125 0 L 22.828125 -2.953125 L 22.71875 -2.953125 C 20.476562 -0.472656 17.628906 0.765625 14.171875 0.765625 C 10.398438 0.765625 7.289062 -0.566406 4.84375 -3.234375 Z M 12.5 -17.46875 C 11.332031 -16.320312 10.75 -14.847656 10.75 -13.046875 C 10.75 -11.242188 11.304688 -9.769531 12.421875 -8.625 C 13.546875 -7.488281 15.023438 -6.921875 16.859375 -6.921875 C 18.628906 -6.921875 20.082031 -7.5 21.21875 -8.65625 C 22.351562 -9.8125 22.921875 -11.273438 22.921875 -13.046875 C 22.921875 -14.847656 22.332031 -16.320312 21.15625 -17.46875 C 19.988281 -18.625 18.554688 -19.203125 16.859375 -19.203125 C 15.128906 -19.203125 13.675781 -18.625 12.5 -17.46875 Z M 12.5 -17.46875 "/></g></g></g><g fill="#000000" fill-opacity="1"><g transform="translate(300.880425, 69.806414)"><g><path d="M 4.84375 -3.234375 C 2.394531 -5.898438 1.171875 -9.171875 1.171875 -13.046875 C 1.171875 -16.921875 2.394531 -20.195312 4.84375 -22.875 C 7.289062 -25.5625 10.398438 -26.90625 14.171875 -26.90625 C 17.628906 -26.90625 20.476562 -25.816406 22.71875 -23.640625 L 22.71875 -43.8125 L 31.75 -43.8125 L 31.75 0 L 22.828125 0 L 22.828125 -2.953125 L 22.71875 -2.953125 C 20.476562 -0.472656 17.628906 0.765625 14.171875 0.765625 C 10.398438 0.765625 7.289062 -0.566406 4.84375 -3.234375 Z M 12.5 -17.46875 C 11.332031 -16.320312 10.75 -14.847656 10.75 -13.046875 C 10.75 -11.242188 11.304688 -9.769531 12.421875 -8.625 C 13.546875 -7.488281 15.023438 -6.921875 16.859375 -6.921875 C 18.628906 -6.921875 20.082031 -7.5 21.21875 -8.65625 C 22.351562 -9.8125 22.921875 -11.273438 22.921875 -13.046875 C 22.921875 -14.847656 22.332031 -16.320312 21.15625 -17.46875 C 19.988281 -18.625 18.554688 -19.203125 16.859375 -19.203125 C 15.128906 -19.203125 13.675781 -18.625 12.5 -17.46875 Z M 12.5 -17.46875 "/></g></g></g><g fill="#000000" fill-opacity="1"><g transform="translate(330.88392, 69.806414)"><g><path d="M 29.5 -11.828125 L 10.546875 -11.828125 C 10.546875 -9.984375 11.140625 -8.617188 12.328125 -7.734375 C 13.515625 -6.859375 14.804688 -6.421875 16.203125 -6.421875 C 17.660156 -6.421875 18.8125 -6.613281 19.65625 -7 C 20.507812 -7.394531 21.484375 -8.171875 22.578125 -9.328125 L 29.09375 -6.0625 C 26.375 -1.507812 21.859375 0.765625 15.546875 0.765625 C 11.597656 0.765625 8.210938 -0.582031 5.390625 -3.28125 C 2.578125 -5.988281 1.171875 -9.242188 1.171875 -13.046875 C 1.171875 -16.847656 2.578125 -20.109375 5.390625 -22.828125 C 8.210938 -25.546875 11.597656 -26.90625 15.546875 -26.90625 C 19.679688 -26.90625 23.046875 -25.707031 25.640625 -23.3125 C 28.242188 -20.914062 29.546875 -17.492188 29.546875 -13.046875 C 29.546875 -12.429688 29.53125 -12.023438 29.5 -11.828125 Z M 10.796875 -16.8125 L 20.734375 -16.8125 C 20.535156 -18.175781 20 -19.222656 19.125 -19.953125 C 18.257812 -20.679688 17.148438 -21.046875 15.796875 -21.046875 C 14.296875 -21.046875 13.101562 -20.65625 12.21875 -19.875 C 11.34375 -19.09375 10.867188 -18.070312 10.796875 -16.8125 Z M 10.796875 -16.8125 "/></g></g></g><g fill="#000000" fill-opacity="1"><g transform="translate(356.812056, 69.806414)"><g><path d="M 8.859375 -10.90625 C 10.492188 -10.90625 11.878906 -10.332031 13.015625 -9.1875 C 14.148438 -8.050781 14.71875 -6.671875 14.71875 -5.046875 C 14.71875 -3.453125 14.148438 -2.082031 13.015625 -0.9375 C 11.878906 0.195312 10.492188 0.765625 8.859375 0.765625 C 7.265625 0.765625 5.898438 0.195312 4.765625 -0.9375 C 3.628906 -2.082031 3.0625 -3.453125 3.0625 -5.046875 C 3.0625 -6.671875 3.628906 -8.050781 4.765625 -9.1875 C 5.898438 -10.332031 7.265625 -10.90625 8.859375 -10.90625 Z M 8.859375 -10.90625 "/></g></g></g><g fill="#000000" fill-opacity="1"><g transform="translate(160.067081, 83.645844)"><g><path d="M 3.03125 0.109375 C 2.53125 0.109375 2.085938 0.0390625 1.703125 -0.09375 C 1.316406 -0.238281 0.953125 -0.472656 0.609375 -0.796875 C 0.460938 -0.910156 0.390625 -1.046875 0.390625 -1.203125 C 0.390625 -1.328125 0.4375 -1.4375 0.53125 -1.53125 C 0.625 -1.632812 0.738281 -1.6875 0.875 -1.6875 C 0.988281 -1.6875 1.085938 -1.648438 1.171875 -1.578125 C 1.441406 -1.328125 1.722656 -1.140625 2.015625 -1.015625 C 2.304688 -0.898438 2.632812 -0.84375 3 -0.84375 C 3.4375 -0.84375 3.800781 -0.941406 4.09375 -1.140625 C 4.394531 -1.335938 4.546875 -1.585938 4.546875 -1.890625 C 4.535156 -2.242188 4.382812 -2.515625 4.09375 -2.703125 C 3.800781 -2.898438 3.359375 -3.066406 2.765625 -3.203125 C 2.066406 -3.335938 1.523438 -3.566406 1.140625 -3.890625 C 0.765625 -4.222656 0.578125 -4.679688 0.578125 -5.265625 C 0.578125 -5.671875 0.679688 -6.023438 0.890625 -6.328125 C 1.097656 -6.628906 1.390625 -6.863281 1.765625 -7.03125 C 2.148438 -7.195312 2.578125 -7.28125 3.046875 -7.28125 C 3.472656 -7.28125 3.875 -7.210938 4.25 -7.078125 C 4.625 -6.941406 4.925781 -6.757812 5.15625 -6.53125 C 5.3125 -6.394531 5.390625 -6.25 5.390625 -6.09375 C 5.390625 -5.96875 5.34375 -5.851562 5.25 -5.75 C 5.15625 -5.65625 5.046875 -5.609375 4.921875 -5.609375 C 4.828125 -5.609375 4.75 -5.640625 4.6875 -5.703125 C 4.507812 -5.878906 4.257812 -6.023438 3.9375 -6.140625 C 3.625 -6.265625 3.328125 -6.328125 3.046875 -6.328125 C 2.585938 -6.328125 2.222656 -6.234375 1.953125 -6.046875 C 1.679688 -5.859375 1.546875 -5.613281 1.546875 -5.3125 C 1.546875 -4.976562 1.679688 -4.722656 1.953125 -4.546875 C 2.222656 -4.367188 2.625 -4.21875 3.15625 -4.09375 C 3.6875 -3.976562 4.117188 -3.835938 4.453125 -3.671875 C 4.796875 -3.515625 5.0625 -3.296875 5.25 -3.015625 C 5.4375 -2.742188 5.53125 -2.378906 5.53125 -1.921875 C 5.53125 -1.523438 5.414062 -1.171875 5.1875 -0.859375 C 4.96875 -0.554688 4.664062 -0.316406 4.28125 -0.140625 C 3.894531 0.0234375 3.476562 0.109375 3.03125 0.109375 Z M 3.03125 0.109375 "/></g></g></g><g fill="#000000" fill-opacity="1"><g transform="translate(172.71849, 83.645844)"><g><path d="M 5.9375 -7.1875 C 6.082031 -7.1875 6.195312 -7.140625 6.28125 -7.046875 C 6.363281 -6.953125 6.40625 -6.832031 6.40625 -6.6875 L 6.40625 -2.75 C 6.40625 -2.21875 6.285156 -1.734375 6.046875 -1.296875 C 5.804688 -0.867188 5.472656 -0.53125 5.046875 -0.28125 C 4.628906 -0.0390625 4.160156 0.078125 3.640625 0.078125 C 3.109375 0.078125 2.628906 -0.0390625 2.203125 -0.28125 C 1.773438 -0.53125 1.441406 -0.867188 1.203125 -1.296875 C 0.960938 -1.734375 0.84375 -2.21875 0.84375 -2.75 L 0.84375 -6.6875 C 0.84375 -6.832031 0.890625 -6.953125 0.984375 -7.046875 C 1.085938 -7.140625 1.210938 -7.1875 1.359375 -7.1875 C 1.492188 -7.1875 1.609375 -7.132812 1.703125 -7.03125 C 1.804688 -6.9375 1.859375 -6.820312 1.859375 -6.6875 L 1.859375 -2.75 C 1.859375 -2.394531 1.9375 -2.078125 2.09375 -1.796875 C 2.257812 -1.515625 2.476562 -1.296875 2.75 -1.140625 C 3.03125 -0.984375 3.328125 -0.90625 3.640625 -0.90625 C 3.960938 -0.90625 4.265625 -0.984375 4.546875 -1.140625 C 4.828125 -1.296875 5.050781 -1.515625 5.21875 -1.796875 C 5.382812 -2.078125 5.46875 -2.394531 5.46875 -2.75 L 5.46875 -6.6875 C 5.46875 -6.832031 5.507812 -6.953125 5.59375 -7.046875 C 5.675781 -7.140625 5.789062 -7.1875 5.9375 -7.1875 Z M 5.9375 -7.1875 "/></g></g></g><g fill="#000000" fill-opacity="1"><g transform="translate(186.661266, 83.645844)"><g><path d="M 1.859375 -0.5 C 1.859375 -0.351562 1.804688 -0.234375 1.703125 -0.140625 C 1.609375 -0.046875 1.492188 0 1.359375 0 C 1.203125 0 1.078125 -0.046875 0.984375 -0.140625 C 0.890625 -0.234375 0.84375 -0.351562 0.84375 -0.5 L 0.84375 -6.6875 C 0.84375 -6.820312 0.890625 -6.9375 0.984375 -7.03125 C 1.085938 -7.125 1.210938 -7.171875 1.359375 -7.171875 C 1.492188 -7.171875 1.609375 -7.125 1.703125 -7.03125 C 1.804688 -6.9375 1.859375 -6.820312 1.859375 -6.6875 Z M 1.859375 -0.5 "/></g></g></g><g fill="#000000" fill-opacity="1"><g transform="translate(196.063732, 83.645844)"><g><path d="M 5.5 -7.171875 C 5.644531 -7.171875 5.765625 -7.128906 5.859375 -7.046875 C 5.953125 -6.960938 6 -6.847656 6 -6.703125 C 6 -6.554688 5.953125 -6.441406 5.859375 -6.359375 C 5.765625 -6.285156 5.644531 -6.25 5.5 -6.25 L 3.6875 -6.25 L 3.6875 -0.484375 C 3.6875 -0.347656 3.632812 -0.234375 3.53125 -0.140625 C 3.425781 -0.046875 3.300781 0 3.15625 0 C 3.007812 0 2.882812 -0.046875 2.78125 -0.140625 C 2.6875 -0.234375 2.640625 -0.347656 2.640625 -0.484375 L 2.640625 -6.25 L 0.8125 -6.25 C 0.675781 -6.25 0.5625 -6.289062 0.46875 -6.375 C 0.375 -6.457031 0.328125 -6.570312 0.328125 -6.71875 C 0.328125 -6.851562 0.375 -6.960938 0.46875 -7.046875 C 0.5625 -7.128906 0.675781 -7.171875 0.8125 -7.171875 Z M 5.5 -7.171875 "/></g></g></g><g fill="#000000" fill-opacity="1"><g transform="translate(209.073854, 83.645844)"><g><path d="M 4.90625 -0.9375 C 5.050781 -0.9375 5.171875 -0.890625 5.265625 -0.796875 C 5.359375 -0.703125 5.40625 -0.59375 5.40625 -0.46875 C 5.40625 -0.320312 5.359375 -0.207031 5.265625 -0.125 C 5.171875 -0.0390625 5.050781 0 4.90625 0 L 1.34375 0 C 1.207031 0 1.085938 -0.046875 0.984375 -0.140625 C 0.890625 -0.234375 0.84375 -0.347656 0.84375 -0.484375 L 0.84375 -6.6875 C 0.84375 -6.820312 0.890625 -6.9375 0.984375 -7.03125 C 1.085938 -7.125 1.207031 -7.171875 1.34375 -7.171875 L 4.90625 -7.171875 C 5.050781 -7.171875 5.171875 -7.125 5.265625 -7.03125 C 5.359375 -6.945312 5.40625 -6.832031 5.40625 -6.6875 C 5.40625 -6.550781 5.359375 -6.441406 5.265625 -6.359375 C 5.171875 -6.273438 5.050781 -6.234375 4.90625 -6.234375 L 1.859375 -6.234375 L 1.859375 -4.140625 L 4.453125 -4.140625 C 4.585938 -4.140625 4.703125 -4.09375 4.796875 -4 C 4.890625 -3.914062 4.9375 -3.804688 4.9375 -3.671875 C 4.9375 -3.523438 4.890625 -3.410156 4.796875 -3.328125 C 4.703125 -3.242188 4.585938 -3.203125 4.453125 -3.203125 L 1.859375 -3.203125 L 1.859375 -0.9375 Z M 4.90625 -0.9375 "/></g></g></g><g clip-path="url(#69f3901cb1)"><path fill="#399b53" d="M 4.160156 63.449219 L 0.855469 68.785156 C 7.015625 67.820312 12.027344 68.648438 15.882812 71.273438 C 13.082031 67.582031 9.171875 64.972656 4.15625 63.449219 Z M 4.160156 63.449219 " fill-opacity="1" fill-rule="evenodd"/></g><path fill="#000000" d="M 1.441406 60.652344 C 8.605469 61.605469 14.164062 65.097656 18.117188 71.117188 C 17.128906 65.039062 14.023438 60.195312 8.792969 56.582031 Z M 1.441406 60.652344 " fill-opacity="1" fill-rule="evenodd"/><path fill="#399b53" d="M 5.066406 50.660156 C 14.832031 56.90625 20.125 65.507812 20.945312 76.453125 C 22.574219 67.820312 20.140625 60.085938 13.644531 53.25 C 19.085938 51.699219 23.28125 48.035156 26.21875 42.257812 C 35.917969 59.011719 32.828125 72.402344 16.949219 82.429688 C 37.0625 75.515625 40.082031 54.441406 26.011719 35.699219 C 22.875 46.113281 15.898438 51.101562 5.070312 50.660156 Z M 5.066406 50.660156 " fill-opacity="1" fill-rule="evenodd"/><g clip-path="url(#62b913b02e)"><path fill="#000000" d="M 29.15625 33.378906 C 45.90625 54.40625 40.582031 78.230469 16.367188 86.132812 C 41.753906 84.675781 56.972656 68.589844 62.035156 37.871094 C 55.355469 46.851562 44.394531 45.355469 29.15625 33.378906 Z M 29.15625 33.378906 " fill-opacity="1" fill-rule="evenodd"/></g><g clip-path="url(#0884f39d2a)"><path fill="#000000" d="M 50.09375 38.554688 C 53.46875 38.554688 56.226562 35.824219 56.226562 32.472656 C 56.226562 29.125 53.472656 26.390625 50.09375 26.390625 C 46.71875 26.390625 43.964844 29.121094 43.964844 32.472656 C 43.964844 35.820312 46.71875 38.554688 50.09375 38.554688 Z M 50.09375 38.554688 " fill-opacity="1" fill-rule="evenodd"/></g><path fill="#399b53" d="M 26.410156 58.226562 C 26.609375 58.570312 26.503906 58.914062 26.085938 59.246094 L 25.300781 57.894531 C 25.621094 57.839844 25.867188 57.839844 26.023438 57.886719 C 26.183594 57.941406 26.316406 58.050781 26.414062 58.21875 Z M 23.410156 56.746094 C 23.085938 56.800781 22.851562 56.800781 22.695312 56.746094 C 22.539062 56.683594 22.421875 56.585938 22.335938 56.4375 C 22.246094 56.285156 22.222656 56.121094 22.265625 55.953125 C 22.3125 55.785156 22.4375 55.617188 22.65625 55.445312 L 23.414062 56.75 Z M 27.789062 57.339844 C 27.472656 56.800781 27.054688 56.460938 26.527344 56.328125 C 26.003906 56.195312 25.316406 56.238281 24.460938 56.460938 L 23.613281 55.007812 C 23.847656 54.9375 24.097656 54.898438 24.359375 54.882812 C 24.617188 54.867188 24.882812 54.867188 25.152344 54.886719 L 25.148438 53.386719 C 24.773438 53.351562 24.402344 53.363281 24.039062 53.414062 C 23.675781 53.460938 23.304688 53.5625 22.921875 53.710938 L 22.585938 53.128906 L 21.574219 53.710938 L 21.898438 54.269531 C 21.613281 54.476562 21.371094 54.699219 21.179688 54.945312 C 20.984375 55.191406 20.84375 55.445312 20.765625 55.714844 C 20.679688 55.980469 20.652344 56.25 20.683594 56.527344 C 20.714844 56.800781 20.808594 57.070312 20.964844 57.34375 C 21.128906 57.625 21.316406 57.847656 21.527344 58.015625 C 21.742188 58.179688 21.980469 58.292969 22.246094 58.359375 C 22.511719 58.421875 22.808594 58.4375 23.140625 58.402344 C 23.46875 58.375 23.839844 58.304688 24.25 58.199219 L 25.140625 59.734375 C 24.816406 59.84375 24.492188 59.902344 24.164062 59.914062 C 23.839844 59.921875 23.484375 59.910156 23.101562 59.859375 L 22.980469 61.394531 C 23.445312 61.453125 23.921875 61.449219 24.402344 61.378906 C 24.886719 61.308594 25.355469 61.1875 25.804688 60.992188 L 26.375 61.96875 L 27.386719 61.390625 L 26.832031 60.433594 C 27.128906 60.226562 27.367188 59.992188 27.5625 59.746094 C 27.757812 59.496094 27.890625 59.238281 27.976562 58.972656 C 28.0625 58.707031 28.085938 58.4375 28.0625 58.160156 C 28.035156 57.882812 27.941406 57.609375 27.789062 57.34375 Z M 27.789062 57.339844 " fill-opacity="1" fill-rule="evenodd"/></svg>