<?xml version="1.0" encoding="UTF-8" standalone="no"?>
<!-- Created with Inkscape (http://www.inkscape.org/) -->

<svg
   width="117.62655mm"
   height="81.495872mm"
   viewBox="0 0 117.62655 81.495872"
   version="1.1"
   id="svg1"
   inkscape:version="1.3 (0e150ed, 2023-07-21)"
   sodipodi:docname="logo2.svg"
   inkscape:export-filename="../../Downloads/SyncPro/logo2-word.png"
   inkscape:export-xdpi="96"
   inkscape:export-ydpi="96"
   xmlns:inkscape="http://www.inkscape.org/namespaces/inkscape"
   xmlns:sodipodi="http://sodipodi.sourceforge.net/DTD/sodipodi-0.dtd"
   xmlns="http://www.w3.org/2000/svg"
   xmlns:svg="http://www.w3.org/2000/svg">
  <sodipodi:namedview
     id="namedview1"
     pagecolor="#ffffff"
     bordercolor="#000000"
     borderopacity="0.25"
     inkscape:showpageshadow="2"
     inkscape:pageopacity="0.0"
     inkscape:pagecheckerboard="0"
     inkscape:deskcolor="#d1d1d1"
     inkscape:document-units="mm"
     inkscape:zoom="0.33351915"
     inkscape:cx="983.45177"
     inkscape:cy="586.17324"
     inkscape:window-width="1440"
     inkscape:window-height="900"
     inkscape:window-x="0"
     inkscape:window-y="0"
     inkscape:window-maximized="0"
     inkscape:current-layer="layer1"
     inkscape:export-bgcolor="#ffffff00" />
  <defs
     id="defs1" />
  <g
     inkscape:label="Layer 1"
     inkscape:groupmode="layer"
     id="layer1"
     transform="translate(-49.879601,-58.246534)">
    <path
       id="path4"
       style="fill:#14213d;fill-opacity:1;stroke-width:0.264583"
       d="M 79.87984,58.246534 A 30,30 0 0 0 49.879604,88.24677 l 5.17e-4,5.17e-4 a 30,30 0 0 0 29.486055,29.963023 v 0.0346 h 0.485242 a 30,30 0 0 0 0.02894,0.002 30,30 0 0 0 0.04341,-0.002 H 133.44143 L 112.06651,99.118975 H 79.467462 v 0.02635 h -0.09715 v -0.0031 a 10.897691,10.897691 0 0 1 -0.01912,0.0021 10.897691,10.897691 0 0 1 -2.159558,-0.243396 10.897691,10.897691 0 0 1 -0.475423,-0.103353 10.897691,10.897691 0 0 1 -2.013314,-0.704349 10.897691,10.897691 0 0 1 -0.272335,-0.148828 10.897691,10.897691 0 0 1 -1.632459,-1.025261 10.897691,10.897691 0 0 1 -0.357084,-0.267684 10.897691,10.897691 0 0 1 -1.497066,-1.497066 10.897691,10.897691 0 0 1 -0.261483,-0.349333 10.897691,10.897691 0 0 1 -1.031461,-1.64176 10.897691,10.897691 0 0 1 -0.145728,-0.267167 10.897691,10.897691 0 0 1 -0.70435,-2.011764 10.897691,10.897691 0 0 1 -0.104386,-0.480074 10.897691,10.897691 0 0 1 -0.243396,-2.157491 10.897691,10.897691 0 0 1 0.03307,-0.803051 10.897691,10.897691 0 0 1 0.01189,-0.15813 10.897691,10.897691 0 0 1 0.0956,-0.765845 10.897691,10.897691 0 0 1 0.02739,-0.157096 10.897691,10.897691 0 0 1 0.163298,-0.780315 10.897691,10.897691 0 0 1 0.01344,-0.04909 10.897691,10.897691 0 0 1 0.215491,-0.723987 10.897691,10.897691 0 0 1 0.05064,-0.154512 10.897691,10.897691 0 0 1 0.279053,-0.714686 10.897691,10.897691 0 0 1 0.06718,-0.150895 10.897691,10.897691 0 0 1 0.345715,-0.706933 10.897691,10.897691 0 0 1 0.04599,-0.08113 10.897691,10.897691 0 0 1 0.383956,-0.644922 10.897691,10.897691 0 0 1 0.06408,-0.101286 10.897691,10.897691 0 0 1 0.45992,-0.643888 10.897691,10.897691 0 0 1 0.09095,-0.116272 10.897691,10.897691 0 0 1 0.514181,-0.607715 10.897691,10.897691 0 0 1 0.06666,-0.06976 10.897691,10.897691 0 0 1 0.532784,-0.532784 10.897691,10.897691 0 0 1 0.08113,-0.07752 10.897691,10.897691 0 0 1 0.599964,-0.507463 10.897691,10.897691 0 0 1 0.121956,-0.0956 10.897691,10.897691 0 0 1 0.639238,-0.456303 10.897691,10.897691 0 0 1 0.104386,-0.06666 10.897691,10.897691 0 0 1 0.661975,-0.394292 10.897691,10.897691 0 0 1 0.05684,-0.03204 10.897691,10.897691 0 0 1 0.716236,-0.350366 10.897691,10.897691 0 0 1 0.144177,-0.06408 10.897691,10.897691 0 0 1 0.720369,-0.28112 10.897691,10.897691 0 0 1 0.145728,-0.04806 10.897691,10.897691 0 0 1 0.728638,-0.216524 10.897691,10.897691 0 0 1 0.05374,-0.01499 10.897691,10.897691 0 0 1 0.791683,-0.165882 10.897691,10.897691 0 0 1 0.133325,-0.02325 10.897691,10.897691 0 0 1 0.77618,-0.09663 10.897691,10.897691 0 0 1 0.15813,-0.01189 10.897691,10.897691 0 0 1 0.684713,-0.02842 c 0.12195,0.013 0.246703,0.01537 0.370003,0.02377 a 10.897691,10.897691 0 0 1 0.278536,0.03152 v -0.01757 c 0.12756,0.005 0.252542,0.01912 0.381372,0.01912 h 31.246154 c 5.29846,0 9.56428,-4.265302 9.56428,-9.563757 v -0.0124 c 0,-5.298465 -4.26582,-9.564274 -9.56428,-9.564274 h -31.246154 -0.0031 a 30,30 0 0 0 -0.379822,-0.02325 z"
       inkscape:export-filename="../../Downloads/SyncPro/logo2-word2.png"
       inkscape:export-xdpi="300"
       inkscape:export-ydpi="300" />
    <path
       id="path5"
       style="fill:#fca311;fill-opacity:1;stroke-width:0.264583"
       d="m 137.50555,79.741905 a 30,30 0 0 0 -0.0434,0.002 H 93.827594 l 18.158596,19.12597 h 25.93226 v -0.0264 h 0.0971 v 0.003 a 10.897691,10.897691 0 0 1 0.0191,-0.002 10.897691,10.897691 0 0 1 2.15956,0.2434 10.897691,10.897691 0 0 1 0.47543,0.10335 10.897691,10.897691 0 0 1 2.01331,0.70435 10.897691,10.897691 0 0 1 0.27233,0.148825 10.897691,10.897691 0 0 1 1.63246,1.02526 10.897691,10.897691 0 0 1 0.35709,0.26769 10.897691,10.897691 0 0 1 1.49706,1.49706 10.897691,10.897691 0 0 1 0.26149,0.34933 10.897691,10.897691 0 0 1 1.03146,1.64176 10.897691,10.897691 0 0 1 0.14573,0.26717 10.897691,10.897691 0 0 1 0.70434,2.01177 10.897691,10.897691 0 0 1 0.10439,0.48007 10.897691,10.897691 0 0 1 0.2434,2.15749 10.897691,10.897691 0 0 1 -0.0331,0.80305 10.897691,10.897691 0 0 1 -0.0119,0.15813 10.897691,10.897691 0 0 1 -0.0956,0.76585 10.897691,10.897691 0 0 1 -0.0274,0.15709 10.897691,10.897691 0 0 1 -0.1633,0.78032 10.897691,10.897691 0 0 1 -0.0134,0.0491 10.897691,10.897691 0 0 1 -0.2155,0.72399 10.897691,10.897691 0 0 1 -0.0506,0.15451 10.897691,10.897691 0 0 1 -0.27905,0.71468 10.897691,10.897691 0 0 1 -0.0672,0.1509 10.897691,10.897691 0 0 1 -0.34572,0.70693 10.897691,10.897691 0 0 1 -0.046,0.0811 10.897691,10.897691 0 0 1 -0.38395,0.64493 10.897691,10.897691 0 0 1 -0.0641,0.10128 10.897691,10.897691 0 0 1 -0.45992,0.64389 10.897691,10.897691 0 0 1 -0.091,0.11627 10.897691,10.897691 0 0 1 -0.51418,0.60772 10.897691,10.897691 0 0 1 -0.0667,0.0698 10.897691,10.897691 0 0 1 -0.53278,0.53278 10.897691,10.897691 0 0 1 -0.0811,0.0775 10.897691,10.897691 0 0 1 -0.59997,0.50746 10.897691,10.897691 0 0 1 -0.12195,0.0956 10.897691,10.897691 0 0 1 -0.63924,0.45631 10.897691,10.897691 0 0 1 -0.10439,0.0667 10.897691,10.897691 0 0 1 -0.66197,0.39429 10.897691,10.897691 0 0 1 -0.0568,0.032 10.897691,10.897691 0 0 1 -0.71624,0.35037 10.897691,10.897691 0 0 1 -0.14418,0.0641 10.897691,10.897691 0 0 1 -0.72037,0.28112 10.897691,10.897691 0 0 1 -0.14572,0.0481 10.897691,10.897691 0 0 1 -0.72864,0.21653 10.897691,10.897691 0 0 1 -0.0537,0.015 10.897691,10.897691 0 0 1 -0.79168,0.16588 10.897691,10.897691 0 0 1 -0.13332,0.0233 10.897691,10.897691 0 0 1 -0.77618,0.0966 10.897691,10.897691 0 0 1 -0.15813,0.0119 10.897691,10.897691 0 0 1 -0.68472,0.0284 c -0.12195,-0.013 -0.2467,-0.0154 -0.37,-0.0238 a 10.897691,10.897691 0 0 1 -0.27854,-0.0315 v 0.0176 c -0.12756,-0.005 -0.25254,-0.0191 -0.38137,-0.0191 h -31.24615 c -5.29847,0 -9.564286,4.2653 -9.564286,9.56375 v 0.0124 c 0,5.29846 4.265816,9.56427 9.564286,9.56427 h 31.24615 0.003 a 30,30 0 0 0 0.37982,0.0233 30,30 0 0 0 30.00024,-30.00023 l -5.2e-4,-5.2e-4 a 30,30 0 0 0 -29.4859,-29.963055 v -0.0346 h -0.48524 a 30,30 0 0 0 -0.0289,-0.002 z" />
  </g>
</svg>
