<svg xmlns="http://www.w3.org/2000/svg" xmlns:xlink="http://www.w3.org/1999/xlink" width="500" zoomAndPan="magnify" viewBox="0 0 375 374.999991" height="500" preserveAspectRatio="xMidYMid meet" version="1.0"><defs><clipPath id="0694e9035f"><path d="M 96 47 L 373.210938 47 L 373.210938 370.246094 L 96 370.246094 Z M 96 47 " clip-rule="nonzero"/></clipPath><clipPath id="829a2ec8b9"><path d="M 263 4.996094 L 338 4.996094 L 338 80 L 263 80 Z M 263 4.996094 " clip-rule="nonzero"/></clipPath></defs><path fill="#399b53" d="M 22.144531 231.550781 L 2.105469 264.1875 C 39.457031 258.285156 69.851562 263.339844 93.21875 279.386719 C 76.238281 256.832031 52.535156 240.875 22.113281 231.550781 Z M 22.144531 231.550781 " fill-opacity="1" fill-rule="evenodd"/><path fill="#000000" d="M 5.648438 214.445312 C 49.085938 220.289062 82.804688 241.632812 106.777344 278.449219 C 100.785156 241.269531 81.957031 211.660156 50.234375 189.558594 Z M 5.648438 214.445312 " fill-opacity="1" fill-rule="evenodd"/><path fill="#399b53" d="M 27.625 153.347656 C 86.863281 191.558594 118.949219 244.144531 123.910156 311.054688 C 133.808594 258.285156 119.039062 210.992188 79.65625 169.183594 C 112.652344 159.707031 138.078125 137.300781 155.90625 101.96875 C 214.722656 204.425781 195.984375 286.289062 99.695312 347.597656 C 221.652344 305.332031 239.96875 176.480469 154.636719 61.882812 C 135.625 125.554688 93.308594 156.042969 27.652344 153.347656 Z M 27.625 153.347656 " fill-opacity="1" fill-rule="evenodd"/><g clip-path="url(#0694e9035f)"><path fill="#000000" d="M 173.707031 47.683594 C 275.292969 176.265625 242.992188 321.925781 96.152344 370.246094 C 250.105469 361.34375 342.402344 262.976562 373.09375 75.144531 C 332.59375 130.066406 266.121094 120.921875 173.707031 47.683594 Z M 173.707031 47.683594 " fill-opacity="1" fill-rule="evenodd"/></g><g clip-path="url(#829a2ec8b9)"><path fill="#000000" d="M 300.6875 79.324219 C 321.152344 79.324219 337.859375 62.640625 337.859375 42.144531 C 337.859375 21.679688 321.179688 4.964844 300.6875 4.964844 C 280.226562 4.964844 263.515625 21.648438 263.515625 42.144531 C 263.515625 62.609375 280.226562 79.324219 300.6875 79.324219 Z M 300.6875 79.324219 " fill-opacity="1" fill-rule="evenodd"/></g><path fill="#399b53" d="M 157.058594 199.609375 C 158.269531 201.730469 157.632812 203.820312 155.089844 205.847656 L 150.335938 197.582031 C 152.273438 197.25 153.757812 197.25 154.726562 197.550781 C 155.695312 197.882812 156.480469 198.550781 157.085938 199.578125 Z M 138.863281 190.558594 C 136.898438 190.890625 135.476562 190.890625 134.535156 190.558594 C 133.597656 190.195312 132.871094 189.589844 132.355469 188.679688 C 131.8125 187.742188 131.660156 186.742188 131.933594 185.714844 C 132.207031 184.683594 132.960938 183.65625 134.292969 182.625 L 138.894531 190.585938 Z M 165.410156 194.191406 C 163.503906 190.890625 160.960938 188.832031 157.785156 188.015625 C 154.605469 187.195312 150.429688 187.46875 145.253906 188.832031 L 140.105469 179.929688 C 141.527344 179.507812 143.042969 179.265625 144.617188 179.171875 C 146.191406 179.082031 147.792969 179.082031 149.429688 179.203125 L 149.398438 170.03125 C 147.128906 169.820312 144.890625 169.878906 142.679688 170.183594 C 140.46875 170.484375 138.230469 171.089844 135.898438 172 L 133.871094 168.457031 L 127.726562 172 L 129.695312 175.417969 C 127.96875 176.691406 126.515625 178.054688 125.335938 179.566406 C 124.152344 181.050781 123.304688 182.625 122.820312 184.261719 C 122.308594 185.894531 122.15625 187.53125 122.335938 189.226562 C 122.519531 190.890625 123.09375 192.554688 124.03125 194.222656 C 125.03125 195.945312 126.183594 197.308594 127.453125 198.339844 C 128.753906 199.335938 130.207031 200.035156 131.8125 200.425781 C 133.417969 200.820312 135.234375 200.910156 137.230469 200.699219 C 139.226562 200.519531 141.46875 200.09375 143.949219 199.457031 L 149.367188 208.84375 C 147.402344 209.511719 145.433594 209.875 143.4375 209.933594 C 141.46875 209.996094 139.320312 209.902344 136.988281 209.601562 L 136.261719 218.988281 C 139.078125 219.351562 141.984375 219.320312 144.890625 218.894531 C 147.824219 218.472656 150.671875 217.714844 153.394531 216.535156 L 156.84375 222.5 L 162.992188 218.957031 L 159.628906 213.113281 C 161.417969 211.839844 162.871094 210.417969 164.050781 208.90625 C 165.230469 207.390625 166.046875 205.816406 166.5625 204.183594 C 167.078125 202.546875 167.226562 200.910156 167.078125 199.214844 C 166.925781 197.519531 166.351562 195.855469 165.410156 194.222656 Z M 165.410156 194.191406 " fill-opacity="1" fill-rule="evenodd"/></svg>