<?xml version="1.0" encoding="UTF-8" standalone="no"?>
<svg
   viewBox="0 0 100.000000 100.000000"
   version="1.1"
   id="el_q9TJh6D9M"
   sodipodi:docname="loader-sync.svg"
   inkscape:version="1.3 (0e150ed, 2023-07-21)"
   xmlns:inkscape="http://www.inkscape.org/namespaces/inkscape"
   xmlns:sodipodi="http://sodipodi.sourceforge.net/DTD/sodipodi-0.dtd"
   xmlns="http://www.w3.org/2000/svg"
   xmlns:svg="http://www.w3.org/2000/svg">
  <defs
     id="defs1" />
  <sodipodi:namedview
     id="namedview1"
     pagecolor="#ffffff"
     bordercolor="#000000"
     borderopacity="0.25"
     inkscape:showpageshadow="2"
     inkscape:pageopacity="0.0"
     inkscape:pagecheckerboard="0"
     inkscape:deskcolor="#d1d1d1"
     inkscape:zoom="2.36"
     inkscape:cx="50"
     inkscape:cy="49.788136"
     inkscape:window-width="1440"
     inkscape:window-height="900"
     inkscape:window-x="0"
     inkscape:window-y="0"
     inkscape:window-maximized="0"
     inkscape:current-layer="el_q9TJh6D9M" />
  <style
     id="style1">&#10;		@-webkit-keyframes el_R9UW4-P7ah_cFTtL09b-_Animation{0%{-webkit-transform: translate(50.609373807907104px,&#10;		50.12313608825207px) rotate(0deg) translate(-50.609373807907104px, -50.12313608825207px);transform:&#10;		translate(50.609373807907104px, 50.12313608825207px) rotate(0deg) translate(-50.609373807907104px,&#10;		-50.12313608825207px);}100%{-webkit-transform: translate(50.609373807907104px, 50.12313608825207px) rotate(360deg)&#10;		translate(-50.609373807907104px, -50.12313608825207px);transform: translate(50.609373807907104px,&#10;		50.12313608825207px) rotate(360deg) translate(-50.609373807907104px, -50.12313608825207px);}}@keyframes&#10;		el_R9UW4-P7ah_cFTtL09b-_Animation{0%{-webkit-transform: translate(50.609373807907104px, 50.12313608825207px)&#10;		rotate(0deg) translate(-50.609373807907104px, -50.12313608825207px);transform: translate(50.609373807907104px,&#10;		50.12313608825207px) rotate(0deg) translate(-50.609373807907104px, -50.12313608825207px);}100%{-webkit-transform:&#10;		translate(50.609373807907104px, 50.12313608825207px) rotate(360deg) translate(-50.609373807907104px,&#10;		-50.12313608825207px);transform: translate(50.609373807907104px, 50.12313608825207px) rotate(360deg)&#10;		translate(-50.609373807907104px, -50.12313608825207px);}}#el_q9TJh6D9M *{-webkit-animation-duration:&#10;		3s;animation-duration: 3s;-webkit-animation-iteration-count: infinite;animation-iteration-count:&#10;		infinite;-webkit-animation-timing-function: cubic-bezier(0, 0, 1, 1);animation-timing-function: cubic-bezier(0, 0,&#10;		1, 1);}#el_S-2d9yQa5L{stroke: none;stroke-width: 1;fill: none;}#el_R9UW4-P7ah{-webkit-transform: translate(12px,&#10;		6px);transform: translate(12px, 6px);fill: #BCBCBC;}#el_xmvLW_YrWI{-webkit-transform: translate(1px,&#10;		39px);transform: translate(28px, 39px);}#el_nq-cSg8kZ_{fill: #7942A8;}#el_8sF3o8gajn{fill:&#10;		#B72779;}#el_VCHGuqeFrW{fill: #EE4037;}#el_kL3ZG-zAr2{fill:&#10;		#F59121;}#el_R9UW4-P7ah_cFTtL09b-{-webkit-animation-name: el_R9UW4-P7ah_cFTtL09b-_Animation;animation-name:&#10;		el_R9UW4-P7ah_cFTtL09b-_Animation;-webkit-transform: translate(50.609373807907104px, 50.12313608825207px)&#10;		rotate(0deg) translate(-50.609373807907104px, -50.12313608825207px);transform: translate(50.609373807907104px,&#10;		50.12313608825207px) rotate(0deg) translate(-50.609373807907104px, -50.12313608825207px);}&#10;		#globe {width: 10px;}&#10;	</style>
  <!-- Generator: Sketch 52.5 (67469) - http://www.bohemiancoding.com/sketch -->
  <title
     id="title1">&#10;		both in one&#10;	</title>
  <desc
     id="desc1">&#10;		Created with Sketch.&#10;	</desc>
  <g
     id="el_S-2d9yQa5L"
     fill-rule="evenodd">
    <g
       id="el_R9UW4-P7ah_cFTtL09b-"
       data-animator-group="true"
       data-animator-type="1">
      <g
         id="el_R9UW4-P7ah"
         fill-rule="nonzero">
        <path
           d="M2.04181362,19.9352748 C3.07651646,18.0314216 14.0719587,0.344900949 38.4633538,0.165552455 C64.0550042,-0.0137960379 75.3539593,20.2525837 75.7333503,21.1217341 C77.4164669,25.0053188 76.699073,29.9925865 73.1327972,31.7722754 C69.0422719,33.814089 64.7655001,32.5862416 62.4822559,29.3579688 C57.7709089,22.7358705 57.2535575,14.3892676 45.1337381,9.44338797 C18.8660819,-1.29682757 0.965722656,21.8598221 2.02111956,19.9283768 L2.04181362,19.9352748 Z M75.1884068,68.3317759 C74.1675,70.2218331 63.1720578,87.9221498 38.7806627,88.0808043 C13.1890123,88.2532547 1.87626116,68.0075691 1.50376814,67.1108266 C-0.206940569,63.247936 0.517351423,58.2675663 4.06983119,56.4878774 C8.16725446,54.4460638 12.4509242,55.6808092 14.7272705,58.902184 C19.4455155,65.5380783 19.9559689,73.8708852 32.0826862,78.8236628 C58.3641385,89.5431843 76.2713958,66.4072287 75.1953048,68.338674 L75.1884068,68.3317759 Z"
           id="el_j8B3lfKba6" />
      </g>
    </g>
    <!--  -->
    <!-- <g transform="translate(25.000000,68.000000) scale(0,0)" fill="#bcbcbc" stroke="none">
			
		</g> -->
    <g
       transform="translate(30.000000,35.000000) scale(0.090033,0.090000)"
       fill="#bcbcbc"
       stroke="none"
       id="globe">
      <path
         id="path1"
         d="m 102.54487,395.42101 c 0.50212,0.1283 1.4595,0.17361 3.44925,0.17361 0.23285,0 0.34675,-0.0189 0.56403,-0.0217 -0.0297,-0.0352 -0.08,-0.0504 -0.10847,-0.0868 -1.33879,0.003 -2.6684,-0.008 -3.90481,-0.0651 z" />
      <path
         id="path3"
         d=""
         stroke="none"
         fill="#202830"
         fill-rule="evenodd" />
      <path
         id="path4"
         d=""
         stroke="none"
         fill="#202c04"
         fill-rule="evenodd" />
    </g>
    <!--  -->
  </g>
  <g
     id="g12"
     transform="matrix(0.10976859,0,0,0.10976859,34.920755,43.299142)"
     style="display:inline;-webkit-animation-duration:3s;-webkit-animation-iteration-count:infinite;-webkit-animation-timing-function:cubic-bezier(0, 0, 1, 1)">
    <path
       id="path4-6"
       style="fill:#14213d;fill-opacity:1;stroke-width:0.999999;-webkit-animation-duration:3s;-webkit-animation-iteration-count:infinite;-webkit-animation-timing-function:cubic-bezier(0, 0, 1, 1)"
       d="M 0.38671996,-86.999997 A 113.38583,113.38583 0 0 0 -113,26.386723 l 0.002,0.002 A 113.38583,113.38583 0 0 0 -1.5546873,139.63475 v 0.13077 h 1.83398553 a 113.38583,113.38583 0 0 0 0.10937953,0.008 113.38583,113.38583 0 0 0 0.16406929,-0.008 H 202.82423 L 122.03713,67.478522 H -1.1718741 v 0.09959 h -0.3671811 v -0.01172 a 41.188124,41.188124 0 0 1 -0.072264,0.0079 41.188124,41.188124 0 0 1 -8.1621091,-0.919922 41.188124,41.188124 0 0 1 -1.7968747,-0.390626 41.188124,41.188124 0 0 1 -7.609376,-2.662106 41.188124,41.188124 0 0 1 -1.029298,-0.5625 41.188124,41.188124 0 0 1 -6.169923,-3.875002 41.188124,41.188124 0 0 1 -1.349609,-1.011719 41.188124,41.188124 0 0 1 -5.658203,-5.658202 41.188124,41.188124 0 0 1 -0.988282,-1.320314 41.188124,41.188124 0 0 1 -3.898435,-6.205077 41.188124,41.188124 0 0 1 -0.550783,-1.009765 41.188124,41.188124 0 0 1 -2.66211,-7.603518 41.188124,41.188124 0 0 1 -0.39453,-1.814453 41.188124,41.188124 0 0 1 -0.919922,-8.154297 41.188124,41.188124 0 0 1 0.124989,-3.035153 41.188124,41.188124 0 0 1 0.04494,-0.597657 41.188124,41.188124 0 0 1 0.361322,-2.894532 41.188124,41.188124 0 0 1 0.103522,-0.593749 41.188124,41.188124 0 0 1 0.617189,-2.949222 41.188124,41.188124 0 0 1 0.0508,-0.185537 41.188124,41.188124 0 0 1 0.814454,-2.736329 41.188124,41.188124 0 0 1 0.191395,-0.583982 41.188124,41.188124 0 0 1 1.054689,-2.701175 41.188124,41.188124 0 0 1 0.253909,-0.5703123 41.188124,41.188124 0 0 1 1.30664,-2.6718727 41.188124,41.188124 0 0 1 0.17382,-0.3066331 41.188124,41.188124 0 0 1 1.451172,-2.4375005 41.188124,41.188124 0 0 1 0.242193,-0.3828132 41.188124,41.188124 0 0 1 1.73828,-2.4335925 41.188124,41.188124 0 0 1 0.343748,-0.43945325 41.188124,41.188124 0 0 1 1.943361,-2.29687565 41.188124,41.188124 0 0 1 0.251944,-0.2636598 41.188124,41.188124 0 0 1 2.013671,-2.0136718 41.188124,41.188124 0 0 1 0.306634,-0.292989 41.188124,41.188124 0 0 1 2.26758,-1.9179704 41.188124,41.188124 0 0 1 0.460936,-0.3613229 41.188124,41.188124 0 0 1 2.416018,-1.7246098 41.188124,41.188124 0 0 1 0.39453,-0.2519433 41.188124,41.188124 0 0 1 2.501952,-1.4902375 41.188124,41.188124 0 0 1 0.214829,-0.121096 41.188124,41.188124 0 0 1 2.707033,-1.3242183 41.188124,41.188124 0 0 1 0.544921,-0.242192 41.188124,41.188124 0 0 1 2.722654,-1.062501 41.188124,41.188124 0 0 1 0.550783,-0.181644 41.188124,41.188124 0 0 1 2.753907,-0.818358 41.188124,41.188124 0 0 1 0.203112,-0.05665 41.188124,41.188124 0 0 1 2.9921884,-0.626956 41.188124,41.188124 0 0 1 0.5039055,-0.08787 41.188124,41.188124 0 0 1 2.9335937,-0.365216 41.188124,41.188124 0 0 1 0.5976567,-0.04494 41.188124,41.188124 0 0 1 2.5878917,-0.107414 c 0.4609134,0.04913 0.9324208,0.05809 1.39843655,0.08984 a 41.188124,41.188124 0 0 1 1.0527345,0.119131 v -0.06641 c 0.48211654,0.0189 0.95448945,0.07227 1.44140605,0.07227 H 119.92966 c 20.02568,0 36.14846,-16.120827 36.14846,-36.146484 v -0.04687 c 0,-20.025694 -16.12278,-36.148437 -36.14846,-36.148437 H 1.8339616 1.822245 a 113.38583,113.38583 0 0 0 -1.43554771,-0.08787 z"
       inkscape:export-filename="../../Downloads/SyncPro/Exports/DTLogo.png"
       inkscape:export-xdpi="300"
       inkscape:export-ydpi="300" />
    <path
       id="path5"
       style="fill:#fca311;fill-opacity:1;stroke-width:0.999999;-webkit-animation-duration:3s;-webkit-animation-iteration-count:infinite;-webkit-animation-timing-function:cubic-bezier(0, 0, 1, 1)"
       d="m 218.18468,-5.7576492 a 113.38583,113.38583 0 0 0 -0.16403,0.00756 H 53.102641 L 121.73356,66.537041 h 98.01169 v -0.09978 h 0.36699 v 0.01134 a 41.188124,41.188124 0 0 1 0.0722,-0.0076 41.188124,41.188124 0 0 1 8.16212,0.919937 41.188124,41.188124 0 0 1 1.7969,0.390615 41.188124,41.188124 0 0 1 7.60936,2.66211 41.188124,41.188124 0 0 1 1.02928,0.562488 41.188124,41.188124 0 0 1 6.16992,3.874998 41.188124,41.188124 0 0 1 1.34964,1.011742 41.188124,41.188124 0 0 1 5.65818,5.65818 41.188124,41.188124 0 0 1 0.9883,1.320302 41.188124,41.188124 0 0 1 3.89844,6.205077 41.188124,41.188124 0 0 1 0.55079,1.009777 41.188124,41.188124 0 0 1 2.66207,7.60354 41.188124,41.188124 0 0 1 0.39454,1.814438 41.188124,41.188124 0 0 1 0.91994,8.154295 41.188124,41.188124 0 0 1 -0.1251,3.03515 41.188124,41.188124 0 0 1 -0.045,0.59765 41.188124,41.188124 0 0 1 -0.36132,2.89456 41.188124,41.188124 0 0 1 -0.10356,0.59372 41.188124,41.188124 0 0 1 -0.6172,2.94924 41.188124,41.188124 0 0 1 -0.0506,0.18558 41.188124,41.188124 0 0 1 -0.81449,2.73634 41.188124,41.188124 0 0 1 -0.19125,0.58397 41.188124,41.188124 0 0 1 -1.05467,2.70115 41.188124,41.188124 0 0 1 -0.25399,0.57034 41.188124,41.188124 0 0 1 -1.30665,2.67186 41.188124,41.188124 0 0 1 -0.17386,0.30652 41.188124,41.188124 0 0 1 -1.45115,2.43753 41.188124,41.188124 0 0 1 -0.24227,0.38279 41.188124,41.188124 0 0 1 -1.73828,2.4336 41.188124,41.188124 0 0 1 -0.34394,0.43944 41.188124,41.188124 0 0 1 -1.94336,2.2969 41.188124,41.188124 0 0 1 -0.25209,0.26381 41.188124,41.188124 0 0 1 -2.01366,2.01366 41.188124,41.188124 0 0 1 -0.30652,0.29291 41.188124,41.188124 0 0 1 -2.2676,1.91796 41.188124,41.188124 0 0 1 -0.46091,0.36132 41.188124,41.188124 0 0 1 -2.41603,1.72464 41.188124,41.188124 0 0 1 -0.39454,0.25209 41.188124,41.188124 0 0 1 -2.50194,1.49023 41.188124,41.188124 0 0 1 -0.21467,0.12095 41.188124,41.188124 0 0 1 -2.70705,1.32423 41.188124,41.188124 0 0 1 -0.54494,0.24227 41.188124,41.188124 0 0 1 -2.72265,1.0625 41.188124,41.188124 0 0 1 -0.55076,0.18179 41.188124,41.188124 0 0 1 -2.75391,0.81838 41.188124,41.188124 0 0 1 -0.20296,0.0567 41.188124,41.188124 0 0 1 -2.99218,0.62695 41.188124,41.188124 0 0 1 -0.50388,0.0881 41.188124,41.188124 0 0 1 -2.9336,0.3651 41.188124,41.188124 0 0 1 -0.59766,0.045 41.188124,41.188124 0 0 1 -2.58791,0.10734 c -0.46092,-0.0491 -0.93241,-0.0582 -1.39843,-0.09 a 41.188124,41.188124 0 0 1 -1.05275,-0.11905 v 0.0665 c -0.48211,-0.0189 -0.95448,-0.0722 -1.4414,-0.0722 H 98.643477 c -20.025714,0 -36.148483,16.12082 -36.148483,36.14646 v 0.0469 c 0,20.02568 16.122769,36.14842 36.148483,36.14842 h 118.095683 0.0113 a 113.38583,113.38583 0 0 0 1.43554,0.0881 113.38583,113.38583 0 0 0 113.38674,-113.3867 l -0.002,-0.002 A 113.38583,113.38583 0 0 0 220.12804,-5.6189783 V -5.74975 h -1.83398 a 113.38583,113.38583 0 0 0 -0.10923,-0.00756 z" />
  </g>
</svg>
